<?xml version="1.0" standalone="no"?>
<!DOCTYPE svg PUBLIC "-//W3C//DTD SVG 20010904//EN"
 "http://www.w3.org/TR/2001/REC-SVG-20010904/DTD/svg10.dtd">
<svg version="1.0" xmlns="http://www.w3.org/2000/svg"
 width="1402.000000pt" height="1122.000000pt" viewBox="0 0 1402.000000 1122.000000"
 preserveAspectRatio="xMidYMid meet">

<g transform="translate(0.000000,1122.000000) scale(0.100000,-0.100000)"
fill="#000000" stroke="none">
<path d="M0 5610 l0 -5610 7010 0 7010 0 0 4309 c0 4096 -1 4310 -17 4314 -17
4 -17 5 0 6 16 1 17 70 17 1296 l0 1295 -7010 0 -7010 0 0 -5610z m3172 5494
c102 -21 141 -40 194 -96 67 -70 106 -141 48 -87 -24 22 -26 22 -22 4 2 -11
16 -26 31 -33 16 -8 31 -21 35 -30 3 -10 21 -31 39 -48 18 -17 33 -39 33 -48
0 -9 7 -16 15 -16 17 0 20 -16 5 -25 -19 -12 -11 -45 10 -45 27 0 27 44 0 88
-12 19 -16 31 -10 27 37 -23 58 -148 32 -190 -12 -19 -13 -19 -6 4 5 21 3 23
-15 18 -16 -4 -21 0 -22 16 0 21 -1 21 -9 2 -6 -15 -9 -8 -9 28 -1 34 -9 59
-28 88 l-26 40 -13 -28 -12 -28 -1 36 c-1 36 -33 89 -53 89 -7 0 -1 -12 13
-26 l24 -25 -45 24 c-25 14 -65 27 -90 30 l-45 6 31 -27 c38 -32 61 -68 74
-111 12 -44 3 -39 -16 9 -21 52 -29 46 -10 -7 8 -22 17 -67 21 -99 7 -57 6
-58 -10 -36 -22 30 -35 28 -35 -8 0 -16 -5 -30 -11 -30 -8 0 -9 -13 -5 -40 7
-44 -2 -50 -29 -20 -14 16 -20 17 -26 8 -7 -10 -11 -10 -21 0 -17 17 -33 15
-18 -3 10 -13 11 -18 1 -28 -10 -9 -11 -9 -6 3 8 22 -46 70 -86 77 -18 3 -41
13 -50 24 -22 25 -28 24 -22 -3 4 -19 2 -18 -14 7 -26 39 -45 55 -90 71 l-38
13 33 1 c18 0 35 6 38 14 3 9 32 16 82 22 42 4 80 7 84 6 4 -1 5 5 1 14 -5 12
-7 13 -14 2 -7 -10 -14 -10 -40 -1 -18 7 -36 10 -42 6 -6 -3 -7 -2 -4 4 6 10
-34 33 -56 33 -7 -1 2 -7 18 -15 l30 -14 -40 6 c-49 6 -75 19 -75 38 0 7 -12
15 -27 17 -25 4 -18 9 52 44 75 36 86 39 168 39 48 0 87 1 87 3 0 2 -16 10
-36 18 -20 8 -34 18 -30 21 3 3 23 -2 46 -11 47 -19 53 -20 45 -6 -3 6 1 17 9
26 9 8 16 10 16 4 0 -11 38 -28 85 -37 l30 -6 -28 30 c-15 16 -24 33 -20 37 4
4 1 4 -8 1 -8 -3 -23 2 -34 11 -20 15 -20 15 3 11 12 -3 22 -3 22 -1 0 9 -47
27 -80 30 -19 2 -63 9 -96 16 -56 10 -67 9 -124 -12 l-62 -23 57 -18 c53 -16
93 -39 69 -39 -5 0 -15 5 -21 11 -6 6 -38 13 -72 16 -53 5 -61 4 -56 -10 4
-10 -4 -21 -23 -33 -26 -15 -29 -21 -21 -41 12 -33 12 -33 -13 -33 -13 0 -36
-10 -53 -21 -16 -12 -21 -18 -10 -14 11 4 34 10 50 12 l30 3 -35 -16 c-115
-53 -125 -57 -110 -37 14 17 13 17 -7 -1 -12 -10 -24 -32 -26 -50 -3 -17 -4
-3 -3 32 0 34 0 62 -1 62 -11 0 -73 -45 -77 -56 -3 -9 -1 -12 4 -9 6 3 10 2
10 -4 0 -9 -99 -51 -119 -51 -5 0 -30 -21 -55 -47 -34 -35 -46 -43 -43 -28 1
11 15 32 30 47 27 27 41 98 16 82 -8 -4 -9 1 -4 17 16 53 59 118 101 153 53
45 145 89 176 84 19 -2 14 -7 -26 -26 -26 -13 -46 -25 -43 -28 3 -3 14 -1 25
5 11 6 45 14 77 17 31 4 63 13 70 20 7 8 22 14 32 14 28 0 68 31 53 40 -15 9
14 27 75 46 55 17 101 17 197 -2z m-70 -91 c-6 -2 -9 -10 -5 -16 4 -7 0 -8
-11 -4 -10 4 -23 7 -29 8 -7 1 -1 5 13 9 28 9 52 11 32 3z m1232 -60 c39 -21
78 -47 88 -58 48 -56 81 -172 68 -245 l-7 -45 -2 51 c0 27 -6 55 -13 62 -13
13 -32 16 -25 5 2 -5 -1 -21 -8 -37 -11 -26 -12 -23 -18 49 -6 87 -19 112 -80
156 -48 35 -104 99 -86 99 6 0 44 -17 83 -37z m-1674 -158 c0 -2 -10 -10 -22
-16 -21 -11 -22 -11 -9 4 13 16 31 23 31 12z m1592 -143 c18 -31 17 -127 -2
-162 -7 -13 -6 -19 4 -23 9 -4 18 9 27 36 l14 42 3 -39 c3 -33 -1 -43 -27 -67
-17 -15 -31 -32 -31 -38 0 -5 -18 -22 -40 -38 -25 -17 -43 -39 -47 -55 -3 -15
-12 -33 -19 -39 -8 -6 -14 -19 -14 -28 0 -9 -5 -23 -10 -31 -8 -11 -9 -8 -4
13 8 37 0 34 -25 -8 -11 -19 -28 -35 -37 -35 -12 0 -10 7 11 31 28 34 26 52
-2 27 -26 -22 -67 -43 -59 -29 5 7 -3 11 -22 11 -20 0 -43 -12 -68 -35 -31
-27 -51 -35 -94 -41 -30 -3 -70 -13 -89 -20 -18 -8 -48 -14 -65 -14 -17 0 -46
-4 -64 -9 -21 -7 -30 -6 -26 0 3 6 0 10 -7 8 -51 -6 -31 6 26 16 l70 14 -60
-5 c-50 -4 -64 -1 -85 17 l-25 21 53 -7 c53 -6 126 7 137 25 4 6 -7 7 -27 4
-22 -4 -29 -3 -20 4 11 7 9 10 -7 15 -12 3 -19 1 -15 -4 3 -5 -1 -6 -9 -3 -9
3 -13 13 -10 24 3 13 -2 20 -19 25 -34 11 -148 67 -154 77 -9 15 -26 9 -20 -8
3 -8 2 -12 -3 -9 -5 3 -15 21 -21 40 -6 19 -15 35 -19 35 -12 0 7 100 24 131
8 14 11 30 7 34 -4 5 -1 5 6 1 20 -12 62 20 57 44 -2 11 0 20 6 20 5 0 9 -5 9
-10 0 -6 7 -10 17 -8 12 2 19 -10 28 -50 8 -32 24 -66 41 -85 25 -27 26 -29 4
-12 -14 11 -28 24 -31 29 -12 15 -33 -38 -30 -74 4 -52 30 -108 60 -129 53
-38 145 -48 234 -26 21 6 27 4 27 -8 0 -23 16 -30 70 -28 58 1 175 43 208 74
29 26 82 128 82 156 0 11 5 23 10 26 6 3 10 21 11 38 1 30 1 30 8 7 6 -22 8
-23 14 -7 4 10 11 16 17 12 6 -4 7 2 1 17 -5 13 -14 22 -19 21 -5 -1 -2 19 9
46 13 36 15 51 6 60 -6 6 -7 11 -1 11 5 0 17 -13 26 -28z m-2002 10 c0 -11
-90 -30 -114 -24 -16 4 -8 9 29 18 62 14 85 16 85 6z m-173 -41 c-35 -17 -68
-41 -56 -41 3 0 32 10 65 23 58 22 114 25 114 6 0 -5 -12 -15 -27 -21 -36 -16
-136 -81 -190 -125 -45 -36 -75 -99 -88 -188 l-7 -50 21 19 c12 11 24 16 28
13 3 -4 12 1 19 11 16 21 18 6 5 -51 -8 -32 -7 -36 5 -26 8 6 14 17 14 23 0 6
13 38 29 71 56 115 188 222 295 239 21 3 64 15 96 25 78 26 174 35 240 23 127
-24 263 -98 310 -169 24 -36 104 -118 145 -147 24 -17 14 -32 -12 -16 -36 21
-188 68 -191 59 -2 -5 -8 -9 -13 -9 -6 0 -8 4 -4 9 7 13 -49 30 -105 32 -45 1
-120 -23 -120 -40 0 -14 34 -19 83 -14 25 3 53 0 63 -6 16 -8 11 -10 -27 -11
-30 0 -70 -11 -110 -29 -35 -16 -74 -32 -86 -36 -22 -6 -22 -5 -10 36 10 35
21 48 59 70 25 15 54 30 64 33 11 3 -10 4 -46 2 -63 -2 -104 -16 -165 -55 -37
-24 -52 -26 -35 -6 7 8 18 15 25 15 6 0 20 9 30 21 19 20 19 20 -9 10 -43 -17
-69 -32 -93 -54 -14 -12 -23 -15 -23 -8 0 7 -9 4 -21 -8 -11 -10 -32 -18 -45
-16 -30 3 -79 -52 -94 -105 -20 -70 -13 -105 39 -193 27 -46 56 -89 64 -95 8
-7 14 -27 14 -44 l1 -33 -12 32 c-6 17 -20 42 -31 55 -11 13 -31 40 -44 61
-26 42 -31 46 -24 16 3 -12 1 -24 -5 -28 -17 -11 1 -104 26 -136 21 -26 22
-26 22 -6 0 26 26 28 35 2 3 -11 12 -22 20 -25 8 -3 15 -12 15 -21 0 -8 4 -15
10 -15 5 0 7 8 4 18 -4 13 -3 13 7 -3 18 -27 18 -141 1 -137 -8 1 -11 -2 -8
-7 4 -5 2 -12 -4 -16 -5 -3 -10 -12 -10 -18 0 -7 17 7 39 31 21 23 43 42 49
42 5 0 13 15 16 33 6 27 8 29 17 15 11 -19 2 -85 -12 -94 -5 -3 -9 -13 -9 -22
0 -15 2 -15 10 -2 8 12 10 9 10 -12 0 -28 -15 -38 -23 -15 -2 7 -11 -1 -19
-18 -9 -16 -28 -41 -43 -55 -15 -14 -31 -35 -36 -47 -7 -19 -14 -22 -41 -17
-53 9 -60 13 -52 26 5 8 -1 7 -16 -3 -14 -9 -35 -22 -48 -30 -13 -8 -32 -31
-43 -51 -20 -40 -26 -113 -9 -123 6 -3 10 -17 10 -30 0 -25 16 -43 22 -25 5
17 77 -49 98 -90 11 -21 23 -65 26 -97 4 -32 16 -70 27 -84 16 -22 18 -36 12
-75 -6 -46 -44 -134 -45 -106 0 7 5 22 11 34 6 11 8 22 6 25 -3 3 -15 -12 -25
-34 -44 -83 -136 -141 -240 -149 -31 -2 -51 -1 -44 2 21 10 13 22 -10 17 -17
-3 -19 -2 -9 5 9 7 10 12 2 16 -6 4 -9 12 -5 17 3 6 -11 7 -38 4 -35 -5 -40
-4 -24 6 15 9 16 13 5 20 -8 5 -26 9 -41 9 -30 0 -68 -40 -68 -72 0 -17 2 -18
30 -3 16 8 33 15 37 15 4 -1 -8 -9 -27 -19 -19 -11 -38 -17 -42 -15 -3 2 -12
-19 -19 -47 -10 -36 -15 -45 -20 -32 -5 16 -7 16 -13 -4 -7 -23 -76 -56 -100
-47 -13 5 -29 -33 -31 -76 0 -8 -4 -29 -8 -46 -7 -27 -3 -39 30 -84 21 -29 52
-69 69 -88 30 -34 30 -34 92 -27 34 4 59 11 56 16 -3 5 -13 9 -23 9 -10 0 -26
10 -37 23 -10 12 -12 16 -4 10 20 -18 30 -16 23 5 -6 16 -5 16 13 0 11 -10 40
-26 65 -37 62 -28 101 -60 95 -78 -4 -9 4 -23 19 -35 14 -11 23 -24 19 -29 -3
-5 0 -8 6 -7 21 5 50 -46 57 -100 4 -37 1 -64 -11 -94 -19 -50 -126 -171 -126
-144 0 9 -4 14 -10 11 -5 -3 -10 -15 -10 -25 0 -19 11 -18 89 12 19 7 22 6 18
-7 -8 -19 -6 -19 29 0 25 13 31 13 52 -1 13 -9 32 -12 43 -9 16 5 32 -5 70
-44 31 -32 46 -56 43 -66 -4 -8 -1 -15 4 -15 14 0 43 -58 32 -65 -5 -3 -14 4
-20 16 -7 11 -14 18 -17 15 -3 -3 0 -12 6 -20 7 -8 11 -23 9 -33 -3 -14 -8 -9
-20 17 -10 25 -12 37 -4 43 7 5 5 12 -8 22 -11 8 -17 18 -13 21 11 12 -12 43
-35 46 -15 2 -23 10 -23 22 0 11 -6 21 -14 24 -9 3 -11 0 -6 -8 10 -16 -33 -3
-56 16 -14 12 -22 12 -60 -6 -24 -11 -52 -20 -62 -20 -15 0 -16 -3 -7 -20 6
-11 7 -20 1 -20 -5 0 -11 7 -15 15 -8 21 -33 19 -38 -2 -2 -10 -4 -44 -3 -75
0 -32 -2 -58 -5 -58 -3 0 -18 14 -33 32 -19 22 -30 29 -34 20 -2 -6 -10 -9
-16 -6 -8 5 -8 2 1 -7 18 -20 14 -31 -7 -19 -26 13 -31 13 -31 -5 0 -8 -4 -15
-10 -15 -15 0 -12 38 5 64 14 21 14 25 0 36 -43 36 -56 105 -29 150 l15 25 -4
-33 c-3 -28 -1 -33 14 -29 11 3 19 -1 21 -10 2 -8 8 2 14 21 6 19 7 33 2 30
-7 -5 -12 38 -9 76 3 27 -62 87 -107 99 -22 7 -44 15 -46 20 -3 5 13 2 35 -6
31 -10 44 -11 55 -2 8 6 14 7 14 2 0 -5 14 -14 30 -20 17 -6 30 -19 30 -28 0
-9 4 -14 9 -11 5 4 12 0 14 -6 3 -8 6 -6 6 5 1 14 5 16 20 7 25 -13 31 -13 31
3 -1 20 -40 100 -47 94 -3 -4 0 -14 8 -23 13 -16 12 -16 -8 -6 -12 7 -24 17
-27 24 -3 7 -3 2 0 -10 6 -22 4 -23 -18 -11 -12 8 -32 14 -42 15 -11 1 -50 7
-88 14 -57 11 -69 17 -74 36 -4 16 -11 20 -25 17 -15 -4 -17 -8 -8 -19 6 -8
16 -11 22 -7 6 4 7 1 3 -6 -5 -7 0 -21 10 -32 24 -26 6 -47 -25 -27 -11 7 -21
16 -21 20 0 5 -7 8 -15 8 -8 0 -15 5 -15 10 0 6 5 10 10 10 6 0 10 6 10 13 0
10 -13 13 -53 9 -96 -8 -197 64 -197 141 0 18 -5 27 -15 27 -9 0 -37 21 -63
48 -37 37 -50 59 -60 100 -16 73 -16 85 12 175 20 66 32 85 79 132 80 80 169
111 237 81 32 -14 33 -15 10 -16 -24 -1 -24 -1 -5 -12 11 -6 25 -17 30 -25 12
-16 71 -2 67 16 -1 7 2 10 7 7 5 -3 14 1 21 9 10 13 9 15 -11 15 -23 1 -23 1
-4 12 11 6 28 20 39 29 10 10 22 17 25 15 3 -2 7 12 9 32 2 34 2 35 -13 17
-15 -18 -15 -17 0 12 8 18 15 54 15 82 0 27 4 52 8 55 11 7 42 -57 42 -87 1
-21 1 -21 12 -3 6 11 8 39 5 67 -3 27 -2 49 3 49 13 0 22 -36 19 -80 -4 -48 7
-62 21 -26 5 15 14 25 19 22 5 -4 19 10 31 29 24 39 32 134 17 190 l-8 30 29
-30 c48 -49 72 -96 72 -142 0 -49 10 -54 34 -18 20 30 21 46 1 19 -12 -16 -14
-16 -15 -3 0 9 9 28 20 41 21 27 43 108 29 108 -4 0 -5 7 -2 17 4 11 3 14 -5
9 -8 -4 -10 -2 -6 7 3 8 -5 26 -18 41 -19 22 -36 28 -92 35 -49 5 -73 13 -83
27 -14 18 -15 18 -8 -3 3 -13 2 -23 -2 -23 -5 0 -13 14 -18 32 -6 17 -16 33
-23 36 -8 2 -10 -3 -6 -15 3 -11 0 -8 -9 6 -11 18 -15 20 -20 8 -3 -8 0 -21 6
-28 7 -7 2 -5 -10 5 -50 42 -57 155 -15 238 l27 54 -35 1 c-31 1 -32 1 -10 -6
23 -7 22 -9 -18 -20 -36 -10 -46 -19 -61 -52 -17 -37 -18 -38 -28 -17 -9 20
-12 17 -28 -35 -15 -48 -16 -61 -5 -87 16 -39 65 -80 96 -80 13 0 24 -5 24
-11 0 -6 -7 -9 -15 -6 -8 4 -17 2 -20 -3 -3 -4 1 -11 7 -13 7 -3 3 -6 -9 -6
-36 -1 -27 -15 30 -45 41 -22 45 -26 22 -22 -16 3 -52 -1 -80 -8 -49 -13 -49
-14 -20 -21 17 -3 40 -11 53 -16 13 -5 28 -7 33 -3 5 3 8 2 7 -3 -1 -4 6 -23
16 -41 9 -18 15 -43 13 -55 -3 -17 -5 -16 -6 7 -2 51 -94 121 -115 87 -10 -16
-102 -23 -147 -11 -82 22 -138 84 -154 172 -5 28 -15 40 -48 59 -35 19 -40 20
-27 4 14 -17 14 -17 -5 -8 -37 20 -63 58 -88 128 l-24 69 -22 -42 c-12 -24
-22 -62 -23 -85 0 -51 39 -138 88 -195 20 -23 30 -43 24 -47 -13 -8 -110 89
-110 111 0 10 -5 14 -14 11 -16 -6 -62 93 -53 115 3 8 6 5 6 -7 1 -11 6 -27
12 -35 8 -11 9 0 4 40 -3 30 -10 59 -16 65 -11 12 -12 65 0 65 5 0 19 28 32
63 25 68 63 129 103 166 14 14 26 34 26 45 0 12 12 44 25 71 14 28 25 56 25
63 0 7 22 35 49 62 52 52 138 100 211 118 58 14 151 21 144 11 -2 -5 13 -17
36 -29 48 -24 53 -18 8 10 -38 23 -30 27 10 6 15 -8 37 -32 50 -54 29 -52 29
-72 0 -45 -37 33 -46 35 -58 12 -8 -15 -9 -19 -1 -15 6 4 11 3 11 -3 0 -6 -13
-17 -30 -26 -37 -19 -60 -62 -60 -112 1 -55 40 -97 116 -122 63 -21 101 -19
121 7 7 8 19 12 27 9 9 -4 38 1 66 9 63 19 95 63 109 149 5 33 11 65 13 70 1
6 -8 27 -21 48 -12 21 -25 56 -28 78 l-6 40 -19 -31 c-10 -17 -16 -35 -13 -41
3 -5 2 -16 -3 -24 -7 -14 -11 -13 -27 5 -26 29 -35 25 -35 -14 0 -24 -10 -46
-35 -76 -19 -23 -35 -40 -35 -38 0 1 7 21 15 43 8 22 14 66 15 98 0 36 4 56
10 52 14 -9 12 7 -5 29 -7 10 -17 42 -21 72 -3 30 -10 51 -15 48 -12 -7 -11
11 6 85 22 90 59 153 129 218 54 50 144 104 171 102 6 0 -7 -9 -28 -18z m303
12 c-1 -11 -61 -76 -65 -71 -6 6 47 78 57 78 4 0 8 -3 8 -7z m745 -143 c3 -5
1 -10 -4 -10 -6 0 -11 5 -11 10 0 6 2 10 4 10 3 0 8 -4 11 -10z m1165 -91 c-9
-46 -39 -92 -64 -97 -13 -3 -11 3 8 22 21 24 33 47 50 99 10 31 13 18 6 -24z
m-320 28 c0 -2 -12 -14 -27 -28 l-28 -24 24 28 c23 25 31 32 31 24z m-816 -67
c7 0 19 -7 26 -15 7 -8 10 -15 8 -15 -11 0 -68 32 -73 41 -4 5 -16 9 -28 10
-20 0 -21 1 -3 8 13 5 25 2 38 -11 10 -10 24 -18 32 -18z m-1146 -40 c-7 -11
-19 -22 -28 -25 -8 -4 -4 5 9 19 29 31 36 33 19 6z m1222 -14 c0 -7 9 -21 20
-31 11 -10 20 -23 20 -28 0 -6 -13 2 -30 18 -27 26 -43 75 -20 60 6 -3 10 -12
10 -19z m-215 -56 c25 -11 54 -30 65 -42 11 -12 26 -23 33 -24 14 -2 86 -44
75 -44 -16 0 -116 48 -122 59 -4 6 -30 23 -57 36 -27 14 -49 28 -49 30 0 8 9
6 55 -15z m-470 -9 c-3 -6 -11 -11 -17 -11 -6 0 -6 6 2 15 14 17 26 13 15 -4z
m305 -1 c0 -5 -5 -10 -11 -10 -5 0 -7 5 -4 10 3 6 8 10 11 10 2 0 4 -4 4 -10z
m434 -40 c5 0 2 8 -5 18 -13 15 -12 16 4 3 9 -8 15 -16 12 -19 -8 -9 59 -53
72 -48 7 3 23 -9 35 -25 13 -17 47 -48 76 -69 70 -51 46 -58 -61 -19 -91 34
-151 69 -167 99 -6 11 -8 20 -5 20 3 0 2 8 -3 18 -5 9 -12 31 -16 47 l-8 30
29 -27 c16 -16 33 -28 37 -28z m-924 27 c0 -2 -17 -19 -37 -38 l-38 -34 34 38
c33 34 41 42 41 34z m150 -28 c-7 -11 -14 -18 -17 -15 -3 3 0 12 7 21 18 21
23 19 10 -6z m963 -73 c9 -23 -20 -27 -45 -6 l-23 19 31 1 c19 0 34 -6 37 -14z
m643 -50 c-19 -62 -81 -150 -107 -151 -16 0 -117 -90 -112 -98 3 -6 1 -7 -5
-3 -7 4 -12 3 -12 -2 0 -19 -147 -62 -212 -62 -115 1 -255 52 -329 121 l-44
40 58 -40 c67 -45 159 -71 258 -71 l63 0 -23 21 c-15 14 -39 23 -69 25 -89 7
-59 19 56 22 64 2 122 7 127 10 6 4 24 7 40 8 67 2 180 86 210 157 l14 32 1
-27 c0 -39 13 -35 56 17 20 25 38 45 40 45 2 0 -3 -20 -10 -44z m-207 -63 c-6
-10 -23 -27 -37 -37 -21 -15 -20 -12 7 17 38 41 47 46 30 20z m-1534 -88 c-33
-97 -49 -105 -21 -11 12 39 32 76 40 76 2 0 -7 -29 -19 -65z m-655 4 c0 -4
-11 -2 -25 4 -14 7 -25 15 -25 19 0 4 11 2 25 -4 14 -6 25 -15 25 -19z m2017
-35 c-3 -3 -12 -4 -19 -1 -8 3 -5 6 6 6 11 1 17 -2 13 -5z m2094 -180 c-34
-70 -61 -128 -61 -130 0 -14 28 4 87 56 83 73 106 79 38 10 -27 -27 -44 -50
-37 -50 27 0 89 32 120 63 20 19 31 25 26 14 -5 -15 -3 -16 17 -8 49 19 236
110 279 137 34 21 14 -3 -80 -93 -69 -67 -123 -123 -120 -127 9 -9 282 91 415
152 l90 42 -50 -42 c-60 -51 -215 -204 -215 -213 0 -3 9 -1 20 5 20 11 225 53
310 64 44 5 43 4 -45 -42 l-90 -47 120 -6 c66 -4 176 -6 245 -4 l125 2 -87
-20 c-49 -11 -88 -24 -88 -29 0 -4 21 -9 48 -9 41 -1 43 -2 17 -9 l-30 -7 30
-12 c48 -20 217 -59 289 -66 73 -8 92 -22 22 -17 -23 2 -54 2 -67 0 -40 -5 79
-72 203 -114 59 -19 108 -40 108 -46 0 -7 -4 -7 -12 0 -14 11 -119 35 -125 28
-7 -7 102 -80 172 -113 58 -28 59 -39 1 -17 -34 13 -13 -13 49 -60 36 -27 65
-50 65 -51 0 -2 -23 -8 -50 -14 -38 -8 -55 -8 -70 1 -25 16 -25 25 -2 31 9 2
-3 8 -28 12 -30 6 -39 10 -26 15 38 13 13 25 -45 22 -47 -3 -60 -1 -54 8 6 10
1 11 -18 6 -21 -5 -25 -3 -21 8 4 9 -3 16 -18 20 -13 3 3 3 34 1 38 -2 62 1
75 10 17 14 17 14 -4 15 -12 0 -24 6 -26 13 -4 9 -7 9 -14 0 -6 -9 -17 -4 -39
16 -27 26 -104 71 -119 71 -4 0 -3 -10 1 -22 3 -13 5 -21 2 -18 -32 39 -59 82
-47 78 8 -3 23 -9 34 -13 20 -7 20 -6 1 9 -11 9 -27 16 -37 16 -9 0 -42 13
-73 29 l-58 29 24 -27 c49 -54 50 -64 2 -20 -73 67 -124 103 -124 86 0 -8 9
-22 21 -33 11 -10 26 -28 31 -38 6 -11 -21 9 -60 45 -64 58 -78 66 -143 80
l-72 17 29 -24 c16 -13 32 -23 37 -24 4 0 7 -4 7 -9 0 -5 -28 7 -62 27 l-62
37 35 6 c32 5 32 6 9 12 -67 16 -196 29 -238 23 -46 -6 -45 -5 61 54 59 34
107 62 107 64 0 2 -17 -2 -39 -10 -54 -19 -234 -53 -244 -47 -5 3 -19 -5 -33
-18 -40 -37 -36 -16 6 35 40 48 51 67 28 48 -19 -15 -88 -52 -88 -47 0 2 24
20 54 40 76 50 93 73 35 46 -97 -44 -181 -71 -175 -55 5 13 -44 -7 -126 -51
-42 -24 -44 -18 -7 23 50 53 71 84 36 53 -36 -32 -34 -18 3 29 l30 38 -118
-60 c-95 -49 -112 -55 -93 -34 54 58 9 35 -139 -69 l-55 -39 35 39 c36 39 24
39 -18 1 -19 -17 -15 -3 22 70 25 50 46 93 46 96 0 3 -33 -26 -72 -65 -127
-122 -270 -230 -192 -145 34 38 11 23 -68 -44 -62 -53 -85 -63 -47 -20 14 15
32 36 40 47 12 18 12 19 -1 9 -86 -65 -231 -172 -246 -181 -16 -11 -12 -12 26
-8 42 5 41 4 -20 -15 -75 -23 -225 -94 -236 -111 -5 -9 -2 -10 12 -5 36 14
158 46 161 42 2 -2 -31 -16 -74 -31 -99 -35 -217 -90 -232 -109 -10 -12 0 -11
55 4 79 23 74 12 -9 -19 -70 -25 -161 -71 -155 -77 3 -2 21 3 41 11 62 26 55
16 -13 -20 -36 -19 -78 -45 -95 -60 l-30 -25 55 21 c83 32 87 33 63 15 -13 -9
-40 -24 -60 -33 -42 -17 -163 -102 -163 -115 0 -4 29 6 65 22 36 16 65 27 65
25 0 -2 -30 -22 -67 -45 -60 -35 -187 -140 -171 -140 9 0 130 71 151 88 9 9
19 13 22 11 2 -3 -31 -31 -74 -63 -74 -55 -274 -248 -221 -213 14 9 51 32 83
51 54 33 51 29 -63 -81 -66 -64 -118 -118 -115 -121 3 -3 18 6 33 19 15 14 47
40 72 58 37 28 33 22 -20 -28 -36 -34 -56 -57 -44 -52 11 5 27 17 34 26 7 9
23 21 34 27 12 6 -11 -23 -50 -63 -66 -69 -124 -143 -170 -214 -17 -26 -14
-25 22 10 45 44 104 90 104 81 0 -3 -28 -41 -63 -83 -35 -43 -78 -101 -96
-128 l-32 -50 43 50 c103 118 121 130 35 22 -43 -53 -87 -126 -87 -144 0 -4
29 24 65 62 l66 70 -62 -80 c-33 -43 -64 -86 -67 -95 -3 -8 -14 -28 -25 -43
-10 -16 -16 -31 -12 -35 4 -4 10 -1 12 6 3 7 16 25 30 40 36 39 17 5 -61 -111
-72 -108 -86 -145 -30 -82 26 29 30 32 16 10 -69 -107 -83 -132 -88 -155 -17
-75 -26 -100 -42 -117 -9 -10 -14 -14 -9 -7 4 6 4 19 1 29 -6 15 -9 15 -21 -6
l-14 -24 6 25 c8 30 17 62 43 150 20 66 19 90 -2 57 -30 -50 -34 -46 -10 8 80
181 106 277 51 182 -16 -26 -30 -47 -33 -47 -3 0 5 19 19 43 13 23 50 92 82
152 47 89 53 105 32 86 -14 -13 -38 -41 -53 -63 -15 -21 -29 -37 -31 -35 -3 4
37 77 136 247 69 117 72 126 26 75 -21 -22 -34 -33 -29 -25 13 26 85 132 137
203 27 37 47 70 45 73 -3 2 -29 -21 -58 -53 -67 -73 -46 -31 31 64 33 39 59
77 59 83 0 7 30 44 68 84 123 130 133 145 57 91 -47 -34 -63 -39 -30 -10 17
15 92 81 168 147 75 66 137 122 137 125 0 2 -16 -5 -36 -17 -58 -36 -49 -16
11 24 30 20 88 71 128 114 41 42 90 95 111 117 l38 40 -23 -35 c-12 -19 -34
-48 -48 -64 l-26 -30 30 19 c57 35 150 108 209 164 53 50 68 55 28 9 -9 -11
-11 -18 -4 -18 23 0 214 195 262 267 28 41 50 71 50 65 0 -5 -18 -52 -39 -105
-22 -54 -37 -97 -34 -97 3 0 53 37 111 82 59 45 98 72 88 60 -31 -36 -14 -34
50 5 113 70 287 227 339 306 39 60 24 13 -34 -109z m-3299 55 c5 -13 5 -19 1
-14 -4 6 -24 28 -43 50 l-35 39 34 -25 c19 -14 38 -36 43 -50z m-915 -1 c-3
-7 -5 -2 -5 12 0 14 2 19 5 13 2 -7 2 -19 0 -25z m918 -38 c9 8 19 -4 40 -51
15 -34 29 -80 31 -103 4 -32 2 -36 -5 -20 -13 29 -31 40 -31 19 0 -9 -4 -14
-8 -11 -5 3 -9 -1 -9 -9 0 -8 4 -12 9 -9 4 3 8 -3 9 -13 0 -11 3 -13 6 -5 2 6
9 9 14 6 6 -3 6 -11 1 -17 -4 -7 -15 -31 -22 -55 -12 -37 -34 -62 -54 -62 -9
0 5 102 20 149 17 54 17 54 2 45 -7 -5 -9 -2 -5 8 8 23 -15 103 -39 130 -35
40 -38 55 -4 20 24 -24 35 -30 45 -22z m-25 -261 c0 -17 -20 -49 -30 -49 -5 0
-7 7 -5 15 3 8 7 22 10 30 5 17 25 21 25 4z m8500 -110 c200 -50 1167 -284
1465 -355 245 -58 419 -101 900 -219 165 -40 352 -86 415 -101 63 -15 110 -29
104 -31 -7 -2 -83 12 -170 32 -197 45 -677 155 -844 194 -377 89 -704 166
-850 201 -91 21 -273 64 -405 95 -132 31 -280 66 -330 79 -49 13 -151 38 -225
56 -74 18 -165 41 -203 52 -37 11 -78 17 -91 14 -37 -9 -84 -54 -111 -105 -13
-26 -24 -38 -25 -28 0 10 7 32 16 49 15 29 15 31 -2 24 -11 -4 -58 -18 -106
-31 -68 -18 -86 -20 -81 -9 16 42 -57 -11 -93 -67 -21 -34 -27 -66 -49 -276
-42 -397 -65 -610 -164 -1493 -22 -195 -58 -526 -81 -735 -22 -209 -50 -454
-60 -545 -11 -91 -35 -313 -55 -495 -81 -752 -99 -895 -107 -835 -4 30 -5 82
-3 115 14 156 60 594 105 985 11 96 29 265 40 375 11 110 34 315 50 455 16
140 34 300 39 355 6 55 19 179 31 275 11 96 47 420 80 720 108 980 119 1068
134 1098 24 46 91 100 138 111 24 6 108 29 188 50 80 21 156 37 170 34 14 -3
95 -22 180 -44z m-8560 27 c0 -3 -4 -8 -10 -11 -5 -3 -10 -1 -10 4 0 6 5 11
10 11 6 0 10 -2 10 -4z m8586 -94 c546 -141 682 -177 679 -180 -2 -3 -71 12
-152 31 -81 20 -191 45 -243 57 -52 12 -158 36 -235 55 -155 37 -225 49 -225
36 0 -14 36 -41 45 -34 4 5 5 2 1 -4 -8 -14 106 -158 264 -333 53 -58 116
-130 140 -160 25 -30 56 -65 69 -77 21 -20 22 -23 7 -29 -10 -4 -21 -3 -25 2
-36 39 -214 249 -245 289 -22 28 -60 70 -85 95 -25 25 -84 90 -130 144 l-84
98 -18 -23 c-10 -13 -19 -19 -19 -12 0 6 5 15 10 18 6 3 10 11 10 17 0 6 -7 5
-17 -3 -15 -12 -16 -12 -8 1 35 62 60 63 261 12z m721 -188 c-3 -3 -12 -4 -19
-1 -8 3 -5 6 6 6 11 1 17 -2 13 -5z m-9441 -168 l3 -51 -13 50 c-7 28 -16 61
-20 75 l-8 25 18 -24 c9 -13 19 -47 20 -75z m4354 24 c0 -5 -2 -10 -4 -10 -3
0 -8 5 -11 10 -3 6 -1 10 4 10 6 0 11 -4 11 -10z m1599 -19 c19 -6 44 -19 55
-30 16 -15 38 -21 86 -23 l64 -3 23 -80 c32 -116 31 -146 -10 -168 l-32 -17
24 21 25 20 -31 92 c-28 81 -35 93 -60 100 -15 5 -49 15 -74 23 -26 8 -59 14
-73 14 -15 0 -38 7 -52 16 -19 13 -56 17 -162 20 -80 2 -127 0 -112 -5 29 -9
16 -12 -178 -31 -92 -8 -278 -48 -397 -84 -11 -4 -1 2 23 13 48 23 56 34 15
21 -157 -48 -244 -89 -300 -143 -18 -17 -36 -28 -39 -24 -21 21 108 104 241
157 133 52 310 96 456 115 127 16 450 13 508 -4z m-465 -143 c-13 -42 -103
-223 -98 -197 4 20 0 28 -21 37 -14 7 -31 12 -38 12 -7 0 -29 14 -50 31 -20
17 -41 27 -47 24 -13 -8 -13 -1 4 39 14 35 17 36 176 65 77 15 82 14 74 -11z
m136 -7 c0 -16 -8 -37 -17 -47 -10 -9 -37 -49 -60 -87 -33 -57 -46 -71 -67
-72 -14 0 -26 1 -26 2 0 6 73 179 86 206 12 22 21 27 49 27 32 0 35 -3 35 -29z
m-6426 4 c3 -8 1 -15 -4 -15 -6 0 -10 7 -10 15 0 8 2 15 4 15 2 0 6 -7 10 -15z
m6516 5 c17 -6 9 -7 -25 -3 -27 3 -52 7 -54 9 -8 7 54 2 79 -6z m406 -11 c3
-6 1 -16 -6 -22 -10 -9 -11 -9 -5 2 6 10 2 12 -14 6 -15 -5 -21 -2 -21 9 0 18
35 22 46 5z m-1409 -108 c8 -4 -14 -5 -47 -3 -34 3 -65 1 -70 -4 -5 -5 -1 -37
8 -71 9 -34 14 -64 12 -66 -3 -2 -23 -7 -46 -9 -28 -4 -41 -2 -41 6 0 21 -46
126 -55 126 -5 0 -34 -9 -65 -20 -64 -22 -77 -24 -68 -11 7 12 113 47 180 60
52 10 168 6 192 -8z m-509 -20 c81 -20 128 -39 120 -46 -2 -3 -26 3 -53 11
-71 21 -228 44 -309 44 -56 0 -67 -3 -62 -15 4 -12 -4 -15 -42 -15 -107 0
-343 -37 -491 -76 -51 -14 -95 -23 -98 -21 -2 3 5 8 16 12 12 3 21 11 21 16 0
14 -40 5 -165 -34 -98 -31 -462 -203 -498 -235 -14 -12 -17 -26 -13 -57 l5
-40 -10 38 c-9 31 -14 35 -25 26 -22 -18 -18 14 4 34 27 24 276 152 382 195
193 80 407 139 610 166 63 9 129 18 145 20 17 2 109 3 205 1 134 -3 195 -9
258 -24z m-4944 1 c3 -5 -1 -9 -9 -9 -8 0 -15 4 -15 9 0 4 4 8 9 8 6 0 12 -4
15 -8z m9863 -8 c-3 -3 -12 -4 -19 -1 -8 3 -5 6 6 6 11 1 17 -2 13 -5z m2500
-10 c-3 -3 -12 -4 -19 -1 -8 3 -5 6 6 6 11 1 17 -2 13 -5z m-5471 -241 c6
-125 -3 -234 -27 -316 -17 -61 -19 -39 -3 31 18 77 21 180 11 332 -6 84 -5
110 3 98 6 -10 13 -75 16 -145z m-2396 141 c0 -11 -113 -244 -117 -241 -2 3 1
17 7 33 9 27 9 28 -5 10 -8 -11 -15 -15 -15 -10 0 14 -115 45 -136 37 -12 -4
-15 -3 -10 5 4 7 2 10 -7 7 -7 -3 -21 3 -31 14 -10 11 -23 18 -28 15 -7 -5 16
64 25 72 11 11 153 40 310 63 4 1 7 -2 7 -5z m275 -5 c3 -4 -12 -42 -34 -85
-26 -51 -40 -71 -41 -56 0 25 -15 29 -27 8 -8 -14 -164 -96 -183 -96 -6 0 -8
6 -5 13 4 6 -3 1 -15 -13 l-21 -25 7 25 c3 14 29 74 57 133 l51 109 102 -4
c56 -1 105 -6 109 -9z m-1905 -3 c0 -2 -8 -10 -17 -17 -16 -13 -17 -12 -4 4
13 16 21 21 21 13z m7140 -36 l-35 -5 85 -85 c236 -237 715 -732 715 -740 0
-16 46 -62 59 -57 16 6 18 -29 2 -42 -10 -9 -17 -4 -28 19 -8 17 -104 121
-212 231 -117 119 -194 204 -190 211 4 6 3 8 -3 5 -8 -5 -503 485 -503 497 0
2 33 -4 73 -13 66 -15 69 -16 37 -21z m-5160 22 c0 -5 -7 -17 -16 -28 -8 -10
-14 -14 -11 -9 2 6 7 18 10 28 7 17 17 23 17 9z m5233 -29 c-7 -2 -19 -2 -25
0 -7 3 -2 5 12 5 14 0 19 -2 13 -5z m162 -30 c33 -8 62 -17 65 -20 7 -7 -64 7
-145 28 -53 14 -59 17 -25 13 25 -3 72 -12 105 -21z m-7658 -35 l-25 -33 -123
3 c-68 2 -132 6 -143 9 -13 4 -16 1 -11 -7 6 -10 -5 -11 -51 -6 -148 17 -184
18 -184 7 0 -6 19 -12 43 -13 l42 -1 -45 -6 c-25 -4 -49 -3 -54 1 -27 22 -382
-18 -561 -64 -73 -18 -225 -72 -271 -96 -11 -5 -32 -16 -48 -23 -31 -15 -87
-67 -159 -149 -39 -44 -42 -46 -15 -10 51 67 55 79 14 40 -20 -19 -60 -68 -88
-110 -64 -94 -79 -109 -44 -46 14 27 24 51 22 53 -9 9 -95 -132 -116 -190 -14
-39 -30 -25 -23 21 24 153 259 382 489 475 161 65 440 124 715 151 209 21 224
22 458 24 l204 2 -26 -32z m3016 -40 c8 -24 18 -52 22 -63 7 -19 7 -20 -7 -1
-8 10 -19 16 -25 13 -5 -3 -17 10 -26 29 -21 42 -21 44 -2 44 8 0 15 5 15 10
0 21 9 9 23 -32z m-3593 -18 c-8 -5 -46 -9 -85 -9 -57 1 -63 3 -35 9 55 12
138 12 120 0z m-230 -30 c0 -6 -29 -10 -67 -10 -48 0 -64 3 -53 10 20 13 120
13 120 0z m3351 -3 c9 -7 20 -31 23 -54 6 -35 5 -43 -13 -52 -18 -10 -20 -7
-26 36 -3 27 -8 56 -10 66 -4 20 4 21 26 4z m-3522 -12 c-5 -5 -143 -35 -161
-35 -29 0 8 15 65 26 68 13 103 17 96 9z m28 -21 c-3 -3 -12 -4 -19 -1 -8 3
-5 6 6 6 11 1 17 -2 13 -5z m1667 -123 c-2 -2 -6 4 -10 13 -5 14 -12 10 -39
-21 -31 -37 -32 -38 -18 -82 20 -69 14 -73 -12 -6 l-23 60 47 54 46 54 7 -34
c3 -19 5 -36 2 -38z m216 50 c7 -13 7 -22 0 -26 -5 -3 -10 -2 -10 3 0 5 -13 8
-30 7 -32 -2 -37 4 -18 23 18 18 46 14 58 -7z m-2277 -28 c-7 -2 -19 -2 -25 0
-7 3 -2 5 12 5 14 0 19 -2 13 -5z m5137 -17 c102 -37 202 -133 235 -226 21
-59 19 -156 -5 -234 -22 -70 -95 -177 -140 -205 -17 -11 -11 0 20 36 85 96
120 179 120 282 0 58 -35 146 -79 201 l-20 25 6 -43 c5 -40 3 -46 -28 -74 -18
-17 -35 -26 -37 -20 -5 16 -64 -12 -73 -34 -7 -17 -8 -17 -8 -1 -1 23 -21 22
-21 -1 0 -15 -6 -18 -30 -14 -16 2 -27 8 -24 13 3 5 -20 9 -50 9 -30 0 -58 -4
-61 -10 -4 -6 1 -7 12 -4 13 4 14 3 5 -3 -15 -12 -74 -4 -66 8 3 5 -2 6 -10 3
-8 -3 -24 4 -35 15 -11 11 -27 18 -34 15 -9 -3 -19 11 -31 43 l-16 48 4 -42
c2 -24 3 -43 1 -43 -2 0 -13 13 -25 29 -20 28 -20 31 -4 71 9 22 37 58 63 81
37 32 41 38 19 30 -134 -49 -221 -132 -259 -246 -11 -33 -14 -36 -17 -17 -6
36 43 128 99 187 56 60 143 109 232 131 65 17 196 11 257 -10z m-5200 -6 c-20
-13 -33 -13 -25 0 3 6 14 10 23 10 15 0 15 -2 2 -10z m4506 -40 c13 0 24 -4
24 -10 0 -5 -8 -10 -17 -10 -10 0 -36 -9 -58 -19 -41 -18 -133 -18 -104 0 8 5
23 9 34 9 11 0 31 9 45 20 14 11 31 17 38 15 8 -3 25 -5 38 -5z m189 -35 c-16
-13 -35 -23 -41 -20 -6 2 -16 -1 -22 -7 -5 -5 -27 -11 -48 -13 -104 -9 -162
-18 -196 -31 -53 -19 -47 -9 10 19 66 34 109 47 205 61 126 20 127 20 92 -9z
m-4995 -19 c-15 -14 -198 -61 -207 -53 -6 7 71 35 142 51 78 19 82 19 65 2z
m2289 -13 c-34 -37 -195 -232 -304 -368 -126 -156 -282 -367 -339 -457 -54
-85 -75 -101 -28 -22 98 167 653 874 685 874 6 0 -1 -12 -14 -27z m438 5 c-3
-8 -6 -5 -6 6 -1 11 2 17 5 13 3 -3 4 -12 1 -19z m1931 -14 c-9 -9 -36 -17
-63 -19 -29 -2 -42 1 -34 6 8 5 28 9 44 9 17 0 37 5 45 10 23 15 26 12 8 -6z
m1787 -13 c-128 -35 -253 -82 -385 -142 -111 -51 -111 -40 0 16 129 65 396
154 460 154 14 0 -20 -13 -75 -28z m-3660 -179 c-5 -6 -55 156 -54 176 0 9 13
-26 29 -78 16 -52 27 -96 25 -98z m-336 131 c-13 -13 -33 -30 -44 -35 -11 -6
-2 9 20 33 22 24 42 40 44 36 2 -5 -7 -20 -20 -34z m3432 -40 c-25 -31 -82
-75 -90 -68 -2 3 6 13 19 22 14 10 38 30 55 45 38 35 42 35 16 1z m-1071 -17
c0 -2 -8 -10 -17 -17 -16 -13 -17 -12 -4 4 13 16 21 21 21 13z m770 -40 c0 -2
-8 -10 -17 -17 -16 -13 -17 -12 -4 4 13 16 21 21 21 13z m-964 -28 c4 -6 -1
-17 -11 -24 -10 -8 -16 -16 -13 -19 3 -3 20 6 38 22 l33 27 -17 -32 c-22 -43
-20 -64 3 -26 19 31 53 62 36 33 -5 -8 4 -3 20 11 l28 25 -13 -25 -13 -25 28
25 28 25 -18 -34 c-14 -28 -14 -33 -2 -28 30 11 37 -14 16 -67 -10 -28 -19
-58 -19 -66 1 -28 35 -87 48 -83 20 7 14 -22 -9 -43 -12 -10 -33 -37 -47 -59
-13 -22 -36 -52 -50 -67 -23 -26 -24 -28 -6 -28 10 0 32 7 48 15 36 19 39 16
21 -18 -8 -15 -10 -25 -5 -22 17 10 5 -33 -15 -55 -10 -11 -25 -18 -32 -16 -7
3 -15 0 -19 -6 -5 -7 -2 -8 7 -3 8 5 2 -3 -13 -18 -31 -29 -38 -47 -11 -26 17
13 17 13 1 -11 -9 -14 -21 -24 -26 -23 -5 1 -18 -7 -27 -17 -10 -11 -23 -20
-28 -20 -6 0 -22 -10 -36 -22 l-26 -23 23 26 c12 14 22 28 22 32 0 15 -40 6
-50 -10 -10 -16 -11 -16 -6 -1 7 24 -23 31 -47 11 -11 -10 -17 -12 -13 -5 4 6
2 12 -3 12 -6 0 -11 7 -11 15 0 18 -5 18 -31 4 -11 -5 -17 -14 -14 -20 4 -5
11 -6 17 -3 6 4 6 -2 -1 -15 -7 -11 -17 -22 -24 -22 -7 -1 -23 -4 -37 -6 -14
-2 -35 -4 -48 -5 -13 0 -21 -3 -18 -6 8 -7 -24 -42 -38 -42 -6 0 -1 7 11 15
13 9 20 22 17 30 -4 9 0 15 8 15 8 0 23 9 33 20 l19 21 -45 -20 c-24 -12 -54
-21 -65 -21 -12 0 -28 -7 -35 -16 -13 -15 -11 -17 19 -12 17 2 32 3 32 2 0 -2
-23 -14 -50 -27 -50 -24 -50 -24 -45 -3 5 17 4 18 -4 6 -8 -10 -13 -12 -18 -4
-5 6 -14 13 -22 16 -9 2 11 21 52 48 63 40 66 44 48 57 -13 8 -31 11 -48 7
-38 -8 -207 -67 -267 -93 -49 -22 -76 -22 -37 -1 12 6 21 15 21 21 0 6 -10 3
-22 -5 -25 -18 -48 -21 -48 -7 0 5 17 16 38 24 20 9 55 27 77 41 23 14 42 20
46 15 3 -6 11 -3 19 6 11 13 10 14 -6 9 -18 -7 -18 -6 1 17 l20 24 -20 -16
c-39 -32 -101 -56 -159 -63 -55 -6 -58 -5 -53 14 4 17 2 19 -21 13 -46 -11
-71 -24 -33 -17 21 4 31 2 27 -4 -9 -16 -71 -19 -85 -5 -6 7 -10 13 -8 13 2 0
64 16 138 35 140 36 266 55 239 36 -8 -6 -10 -11 -4 -11 5 0 14 4 20 8 5 5 38
17 74 27 36 10 71 24 79 31 9 8 23 9 44 3 36 -10 45 -5 27 16 -13 15 -81 21
-94 8 -4 -4 -28 -8 -54 -8 -26 -1 -125 -18 -221 -38 -96 -21 -176 -35 -179
-33 -2 3 9 8 24 12 16 4 40 16 54 28 47 41 118 86 135 86 9 0 40 8 68 17 l52
18 -35 6 c-32 6 -31 6 14 8 28 0 76 -4 108 -11 46 -10 63 -10 78 0 11 7 30 12
42 12 40 0 9 13 -64 26 -40 7 -90 13 -110 13 -21 1 -38 3 -38 6 0 14 163 145
179 145 6 0 13 5 16 10 4 7 -3 9 -22 5 -27 -6 -27 -6 -8 10 11 9 38 26 60 37
l40 21 -20 -24 -20 -23 25 17 c14 9 35 22 48 27 13 6 42 23 65 39 23 15 53 34
66 41 l24 13 -19 -34 c-37 -63 -33 -67 19 -17 28 27 57 46 64 43 8 -2 11 -1 8
4 -3 5 5 17 17 25 27 19 34 20 44 4z m1287 -25 c-9 -7 -23 -13 -32 -13 -10 0
-8 7 9 25 18 19 26 22 32 13 4 -8 1 -18 -9 -25z m-254 -20 c-28 -47 -29 -48
-29 -37 0 12 38 74 46 74 3 0 -5 -17 -17 -37z m-2839 -8 c0 -5 -5 -3 -10 5 -5
8 -10 20 -10 25 0 6 5 3 10 -5 5 -8 10 -19 10 -25z m-3728 -17 c16 16 78 16
78 0 0 -8 7 -5 15 6 8 11 15 15 15 8 0 -18 -42 -42 -75 -42 -34 0 -95 33 -95
52 0 6 11 1 25 -12 20 -18 28 -21 37 -12z m6903 -25 c29 -26 32 -32 12 -19
-16 10 -31 16 -33 13 -2 -2 10 -25 27 -51 17 -26 29 -49 27 -51 -2 -3 -18 -7
-34 -10 -25 -5 -31 -2 -46 24 -9 17 -13 31 -8 31 16 0 11 14 -15 42 l-25 27
22 15 c29 20 26 21 73 -21z m765 -70 c20 -5 -59 -7 -190 -5 -181 3 -251 0
-358 -15 -73 -11 -129 -16 -125 -12 7 6 109 25 238 43 48 7 396 -2 435 -11z
m-940 -94 c0 -14 -9 -21 -30 -25 -16 -4 -30 -13 -30 -20 0 -8 -4 -14 -10 -14
-14 0 -12 52 4 91 7 19 16 43 20 54 6 17 10 13 27 -24 10 -24 19 -52 19 -62z
m-213 34 c-3 -10 -5 -2 -5 17 0 19 2 27 5 18 2 -10 2 -26 0 -35z m-1592 -9
c-36 -29 -142 -84 -164 -84 -8 0 17 15 56 34 39 19 74 39 78 46 6 10 41 28 55
29 3 0 -8 -11 -25 -25z m2076 -56 c42 -50 42 -52 11 -29 -18 13 -35 21 -37 19
-3 -3 11 -31 30 -62 19 -32 35 -61 35 -65 0 -15 -86 2 -107 22 -25 23 -32 47
-8 27 25 -21 16 3 -15 40 -34 39 -40 62 -10 35 23 -21 26 -9 5 19 -24 32 -19
37 41 45 6 0 31 -23 55 -51z m-3150 25 c13 -16 12 -17 -3 -4 -10 7 -18 15 -18
17 0 8 8 3 21 -13z m-3034 -44 c48 -23 180 -83 293 -134 402 -181 880 -410
880 -420 0 -7 -31 6 -164 69 -65 31 -120 56 -123 56 -2 0 9 -17 24 -37 l28
-38 -50 44 c-45 38 -152 101 -172 101 -4 0 3 -10 17 -21 31 -26 6 -14 -35 16
-33 24 -81 50 -121 65 -23 9 -25 8 -20 -7 4 -10 -7 -2 -23 17 -29 34 -44 34
-18 0 6 -9 -6 2 -27 24 -22 23 -36 35 -32 29 10 -19 2 -16 -64 17 -33 17 -62
30 -65 30 -3 0 6 -17 20 -37 39 -59 29 -59 -18 -1 -31 40 -62 63 -122 94 -44
23 -83 42 -88 43 -4 1 0 -11 9 -26 12 -20 6 -17 -22 13 -50 52 -131 103 -94
59 10 -12 10 -15 -1 -15 -7 0 -35 23 -61 50 -26 28 -46 50 -44 50 2 0 44 -18
93 -41z m3186 -74 c88 -37 175 -46 311 -35 71 6 167 20 214 31 47 11 90 18 96
16 14 -5 -149 -44 -239 -56 -217 -32 -404 8 -495 105 l-35 37 55 -41 c31 -23
73 -48 93 -57z m2690 61 c20 10 40 15 43 11 4 -3 9 -27 12 -52 4 -41 2 -47
-17 -52 -25 -6 -27 -18 -6 -27 15 -6 19 -44 9 -83 -5 -18 -11 -22 -30 -17 -18
5 -24 2 -24 -10 0 -9 7 -19 15 -22 19 -8 19 -16 0 -61 -14 -34 -17 -35 -31
-21 -13 12 -15 27 -9 67 4 28 11 51 16 51 5 0 9 11 9 25 0 14 -4 25 -9 25 -4
0 -6 11 -3 25 2 14 8 25 13 25 5 0 9 7 9 15 0 9 -9 15 -21 15 -15 0 -19 4 -15
16 6 14 4 15 -9 4 -9 -7 -12 -16 -7 -19 5 -3 12 -15 16 -25 6 -19 6 -19 -12
-3 -10 9 -24 17 -30 17 -14 0 -16 36 -3 45 5 3 12 19 16 36 6 26 8 28 19 14
11 -15 15 -15 49 1z m-6113 -36 c0 -5 -4 -10 -10 -10 -5 0 -10 5 -10 10 0 6 5
10 10 10 6 0 10 -4 10 -10z m301 -37 c13 -16 12 -17 -3 -4 -10 7 -18 15 -18
17 0 8 8 3 21 -13z m1529 4 c0 -2 -11 -18 -25 -37 -14 -19 -25 -31 -25 -27 0
5 10 21 22 37 20 27 28 35 28 27z m-1935 -101 c-11 -8 -15 -18 -11 -25 11 -17
-58 -83 -72 -69 -6 6 -8 17 -5 24 3 8 0 14 -6 14 -15 0 -14 27 1 36 6 4 8 3 5
-3 -4 -6 1 -14 10 -17 9 -4 20 -1 24 5 4 6 12 8 19 4 9 -6 9 -3 0 14 -9 18 -8
27 4 46 9 14 16 35 17 47 0 16 5 10 16 -20 14 -40 14 -44 -2 -56z m-35 45 c3
-2 -6 0 -19 4 -16 5 -21 4 -17 -4 4 -6 3 -11 -2 -11 -5 0 -9 11 -9 25 0 25 0
25 21 8 11 -10 23 -20 26 -22z m109 -13 c-7 -13 -14 -18 -16 -11 -3 7 2 19 9
27 18 20 22 12 7 -16z m71 12 c0 -5 7 -10 16 -10 14 0 15 -2 3 -17 -13 -15
-14 -15 -17 0 -2 10 -8 17 -13 17 -5 0 -9 5 -9 10 0 6 5 10 10 10 6 0 10 -4
10 -10z m94 -30 c-5 -5 -10 3 -11 18 -1 22 0 24 9 8 6 -10 6 -22 2 -26z m-469
8 c-5 -18 -4 -19 4 -8 5 8 13 11 17 8 3 -4 -5 -21 -19 -38 -16 -19 -24 -37
-20 -47 4 -10 2 -14 -5 -9 -7 4 -10 -4 -10 -24 1 -22 6 -30 19 -30 10 0 23 -9
29 -19 15 -29 12 -39 -6 -16 -12 17 -16 18 -24 5 -6 -9 -5 -17 2 -21 7 -5 7
-11 -3 -22 -12 -12 -15 -11 -25 7 -6 13 -7 26 -2 33 6 7 5 28 -2 52 -8 30 -8
47 0 62 7 11 9 23 6 26 -8 8 23 63 35 63 6 0 8 -10 4 -22z m780 12 c3 -5 2
-10 -4 -10 -5 0 -13 5 -16 10 -3 6 -2 10 4 10 5 0 13 -4 16 -10z m6173 -6
c156 -31 447 -143 517 -198 11 -9 -27 6 -85 33 -145 67 -230 97 -405 142 -152
38 -168 52 -27 23z m-183 -4 c19 0 32 -16 69 -80 51 -88 60 -114 19 -57 -14
20 -30 37 -35 37 -11 0 -11 2 18 -69 14 -35 23 -65 20 -68 -2 -3 -30 10 -62
29 -48 28 -60 41 -81 88 l-24 55 37 -35 c33 -32 38 -27 10 9 -6 8 -11 26 -12
40 0 14 -4 35 -9 45 -7 16 -5 18 9 13 10 -4 28 -7 41 -7z m-1317 -20 c-7 -10
-14 -17 -17 -15 -4 4 18 35 25 35 2 0 -1 -9 -8 -20z m1263 -25 c7 -13 3 -12
-10 5 -11 14 -21 30 -21 35 0 11 14 -7 31 -40z m-6653 -1 c-2 -25 -28 -58 -28
-36 0 15 19 62 25 62 2 0 4 -12 3 -26z m237 6 c3 -5 1 -10 -4 -10 -6 0 -11 5
-11 10 0 6 2 10 4 10 3 0 8 -4 11 -10z m233 -30 c4 -21 2 -23 -13 -10 -14 12
-18 12 -26 -1 -5 -8 -9 -11 -9 -6 0 15 25 47 35 44 5 -2 12 -14 13 -27z m1612
17 c0 -2 -10 -12 -22 -23 l-23 -19 19 23 c18 21 26 27 26 19z m3269 -36 c-45
-38 -52 -30 -8 8 18 16 36 28 38 25 3 -2 -11 -17 -30 -33z m-5024 9 c3 -5 1
-10 -4 -10 -6 0 -11 5 -11 10 0 6 2 10 4 10 3 0 8 -4 11 -10z m-325 -30 c0 -5
-5 -10 -11 -10 -5 0 -7 5 -4 10 3 6 8 10 11 10 2 0 4 -4 4 -10z m810 -25 c39
-19 70 -37 70 -39 0 -6 -144 54 -154 65 -20 19 16 8 84 -26z m-640 11 c0 -3
-4 -8 -10 -11 -5 -3 -10 -1 -10 4 0 6 5 11 10 11 6 0 10 -2 10 -4z m-110 -25
c0 -6 -4 -13 -10 -16 -5 -3 -10 1 -10 9 0 9 5 16 10 16 6 0 10 -4 10 -9z m240
-6 c-7 -8 -17 -15 -22 -15 -6 0 -5 7 2 15 7 8 17 15 22 15 6 0 5 -7 -2 -15z
m1700 -4 c-5 -11 -15 -23 -21 -27 -6 -3 -3 5 6 20 20 30 30 35 15 7z m-1870
-6 c0 -8 -2 -15 -4 -15 -2 0 -6 7 -10 15 -3 8 -1 15 4 15 6 0 10 -7 10 -15z
m63 -11 c-9 -15 -19 -21 -21 -15 -4 13 16 41 29 41 5 0 2 -12 -8 -26z m6138
-89 c-13 -25 -27 -43 -31 -40 -4 2 -21 -13 -39 -35 -20 -25 -37 -37 -46 -34
-11 5 -4 19 30 58 25 28 53 68 63 88 15 32 19 35 32 22 13 -13 12 -20 -9 -59z
m-6301 35 c0 -5 -4 -10 -9 -10 -6 0 -13 5 -16 10 -3 6 1 10 9 10 9 0 16 -4 16
-10z m1761 -18 c-34 -28 -34 -28 -17 -60 9 -17 26 -36 37 -43 11 -6 18 -13 16
-16 -3 -2 -22 7 -44 20 -39 25 -133 44 -133 26 0 -5 5 -9 12 -9 6 0 9 -3 6 -6
-4 -3 -17 0 -30 7 l-23 12 30 13 c36 16 18 18 -21 3 -29 -11 -74 -5 -74 10 0
11 130 52 195 61 80 12 81 11 46 -18z m4975 -13 c41 -24 53 -37 62 -68 17 -56
14 -61 -9 -18 -11 22 -22 37 -25 35 -2 -3 7 -58 20 -124 32 -157 39 -207 27
-200 -5 3 -12 23 -15 43 -10 53 -26 103 -34 103 -4 0 -6 -46 -4 -102 3 -106
-21 -348 -38 -377 -9 -15 -7 37 5 157 10 97 -15 29 -65 -173 -29 -118 -55
-215 -57 -215 -4 0 6 102 13 138 8 39 -13 24 -29 -20 -8 -24 -40 -108 -71
-188 -54 -141 -71 -162 -41 -50 8 30 12 56 10 59 -7 6 -3 11 -80 -126 -37 -68
-69 -123 -70 -123 -2 0 7 27 20 60 13 33 20 60 16 60 -5 0 -34 -34 -66 -75
-31 -41 -59 -75 -61 -75 -9 0 19 46 49 79 16 19 45 66 64 105 19 39 32 59 29
44 -18 -81 50 39 89 155 18 56 36 111 39 122 3 11 2 -8 -1 -42 -3 -35 -3 -63
0 -63 3 0 17 35 31 78 26 78 44 181 47 262 l2 45 7 -45 c5 -25 6 -63 3 -85 -4
-34 -2 -37 8 -21 21 34 40 233 30 316 -6 42 -13 84 -16 95 -6 17 -5 18 4 3 6
-9 18 -52 27 -95 9 -43 18 -80 21 -83 3 -3 3 30 1 72 -2 60 0 74 10 66 16 -14
15 -2 -3 25 -12 19 -47 155 -44 175 0 4 11 -15 24 -43 36 -75 30 -23 -14 123
-9 31 -9 33 12 26 12 -4 45 -20 73 -35z m-6531 17 c-32 -14 -41 -13 -30 3 3 6
18 11 33 11 l27 -1 -30 -13z m1918 -13 c84 -30 88 -39 15 -41 -80 -2 -169 -19
-232 -43 -32 -12 -52 -15 -56 -8 -4 5 -13 7 -21 4 -26 -10 -71 33 -67 64 5 40
51 52 188 47 83 -2 131 -9 173 -23z m2862 17 c-3 -5 -12 -10 -18 -10 -7 0 -6
4 3 10 19 12 23 12 15 0z m-4945 -10 c0 -5 -4 -10 -10 -10 -5 0 -10 5 -10 10
0 6 5 10 10 10 6 0 10 -4 10 -10z m1051 -22 c8 -15 8 -18 0 -14 -6 4 -16 16
-22 28 -8 15 -8 18 0 14 6 -4 16 -16 22 -28z m83 -26 c-17 -4 -64 24 -64 37 0
5 18 0 40 -12 25 -14 34 -23 24 -25z m3425 43 c-9 -8 -141 -56 -145 -52 -3 2
26 16 63 30 67 25 91 32 82 22z m-4634 -25 c3 -5 -1 -10 -9 -10 -9 0 -16 5
-16 10 0 6 4 10 9 10 6 0 13 -4 16 -10z m6982 -76 c34 -24 86 -67 115 -95 l53
-50 -56 44 c-31 24 -96 72 -145 107 -49 34 -93 67 -99 73 -17 17 66 -32 132
-79z m-7027 60 c0 -14 -3 -14 -15 -4 -8 7 -15 14 -15 16 0 2 7 4 15 4 8 0 15
-7 15 -16z m-61 -188 c-20 -72 -43 -157 -50 -188 -7 -31 -17 -54 -21 -52 -4 3
-19 -35 -33 -83 -46 -155 -117 -327 -152 -365 -41 -46 -35 -9 14 90 57 114
120 303 173 517 17 72 41 163 52 203 l21 74 17 -32 c16 -31 15 -36 -21 -164z
m4691 184 c0 -5 -5 -10 -11 -10 -5 0 -7 5 -4 10 3 6 8 10 11 10 2 0 4 -4 4
-10z m-4420 -5 c0 -10 -64 -34 -74 -28 -5 3 4 12 20 19 31 13 54 17 54 9z
m-175 -45 c10 -11 14 -20 9 -20 -5 0 -15 9 -22 20 -7 11 -11 20 -9 20 2 0 12
-9 22 -20z m1295 10 c8 -5 11 -10 5 -10 -5 0 -17 5 -25 10 -8 5 -10 10 -5 10
6 0 17 -5 25 -10z m810 -24 c0 -2 -12 -11 -27 -20 l-28 -17 24 20 c23 21 31
25 31 17z m-690 -26 c0 -5 -2 -10 -4 -10 -3 0 -8 5 -11 10 -3 6 -1 10 4 10 6
0 11 -4 11 -10z m-1280 -20 c0 -5 -2 -10 -4 -10 -3 0 -8 5 -11 10 -3 6 -1 10
4 10 6 0 11 -4 11 -10z m1401 -32 c23 -16 23 -16 -14 -4 -21 7 -46 20 -55 30
-16 16 -15 16 14 4 17 -7 41 -21 55 -30z m539 19 c0 -7 -7 -22 -15 -33 -13
-17 -14 -16 -4 14 11 33 19 41 19 19z m-495 -27 c3 -5 1 -10 -4 -10 -6 0 -11
5 -11 10 0 6 2 10 4 10 3 0 8 -4 11 -10z m803 -303 c19 -18 41 -45 49 -62 12
-23 6 -19 -27 18 -24 27 -65 58 -95 72 -29 14 -59 32 -66 41 -6 8 -34 24 -60
35 -26 12 -55 29 -65 40 -26 29 227 -109 264 -144z m-393 83 c3 -5 1 -10 -4
-10 -6 0 -11 5 -11 10 0 6 2 10 4 10 3 0 8 -4 11 -10z m3773 -34 c4 -28 -21
-66 -43 -66 -6 0 -17 -11 -23 -25 -6 -14 -17 -25 -23 -25 -8 0 -8 4 1 15 7 8
9 15 5 15 -11 0 -79 -42 -86 -53 -4 -5 -12 -7 -18 -3 -6 4 -22 0 -35 -9 -14
-9 -29 -14 -33 -12 -5 3 -47 -8 -93 -25 -47 -16 -96 -31 -110 -32 -14 -1 -45
-8 -69 -15 -30 -9 -76 -11 -150 -6 -163 9 -186 12 -207 22 -10 6 -25 8 -31 6
-7 -3 -13 1 -13 7 0 8 9 11 24 8 31 -6 28 20 -4 41 -15 10 -21 11 -16 4 4 -8
2 -13 -8 -13 -8 0 -20 9 -26 20 -6 11 -17 20 -25 20 -8 0 -15 4 -15 8 0 5 -6
9 -12 9 -21 1 -130 35 -125 39 2 2 37 -3 78 -12 93 -20 427 -30 519 -16 212
34 401 79 485 117 39 18 49 14 53 -19z m-4942 -65 c-14 -16 -16 -20 -16 -43 0
-10 -2 -10 -9 0 -6 10 -10 10 -20 -2 -7 -8 -10 -20 -7 -25 4 -5 1 -13 -5 -16
-21 -13 -79 -114 -73 -128 3 -8 -1 -21 -8 -28 -8 -8 -24 -29 -37 -47 -25 -36
-21 -58 5 -26 9 10 -1 -12 -22 -51 -21 -39 -30 -64 -21 -56 10 8 17 9 17 3 0
-6 -14 -20 -31 -32 -16 -12 -28 -25 -24 -28 3 -3 39 27 79 67 40 40 76 69 80
63 3 -5 0 -12 -8 -15 -7 -3 -28 -26 -45 -52 -17 -25 -26 -43 -19 -39 7 4 -5
-13 -28 -37 -44 -48 -106 -125 -119 -149 -4 -8 18 12 49 45 32 33 49 47 38 30
-11 -16 -21 -39 -23 -50 -3 -11 -10 -20 -17 -20 -12 0 -106 -164 -99 -172 2
-1 22 16 46 37 24 22 45 40 48 40 2 0 -16 -26 -40 -57 -61 -81 -66 -94 -22
-53 l39 35 -41 -50 c-22 -27 -47 -62 -56 -76 -17 -26 -51 -128 -45 -134 2 -2
19 25 38 61 39 74 54 80 17 7 -28 -55 -62 -166 -72 -233 -7 -52 8 -45 23 10 8
26 10 29 11 12 1 -13 -6 -36 -14 -51 -18 -36 -21 -146 -6 -231 6 -36 11 -74
11 -85 0 -17 -2 -18 -11 -5 -8 11 -9 2 -6 -34 7 -68 -9 -36 -22 44 -6 34 -13
65 -16 69 -12 11 -24 -24 -17 -49 12 -45 7 -289 -7 -303 -10 -9 -11 -9 -7 3
10 34 15 81 7 76 -4 -3 -5 12 -1 34 4 22 5 40 1 40 -6 0 -55 -116 -57 -135 -1
-10 -19 -56 -30 -79 -3 -6 9 5 26 24 37 41 30 24 -17 -41 -18 -26 -33 -50 -33
-53 0 -4 -16 -32 -35 -62 -19 -30 -35 -58 -35 -62 1 -4 31 25 67 63 36 39 52
52 34 30 -17 -22 -54 -69 -81 -104 -28 -35 -50 -58 -50 -51 0 7 7 21 16 31 16
17 15 18 -10 6 -14 -7 -28 -19 -31 -29 -3 -9 -12 -21 -20 -28 -8 -6 0 14 16
44 29 53 45 74 33 41 -11 -29 3 -15 34 34 32 49 44 83 17 47 -10 -13 -15 -15
-15 -6 0 9 -6 8 -21 -6 -16 -15 -14 -7 10 35 18 29 30 55 28 57 -2 2 -23 -10
-48 -28 -40 -29 -38 -26 17 28 57 55 84 98 70 111 -3 4 -16 -2 -28 -13 -13
-10 -4 2 19 28 39 43 99 145 90 154 -2 2 -16 -10 -32 -26 -36 -38 -58 -40 -23
-2 36 39 63 82 76 121 10 28 10 32 -4 27 -11 -4 -8 4 8 27 21 30 23 42 23 165
0 108 -2 129 -12 115 -16 -21 -16 -21 2 73 8 43 13 79 11 82 -3 2 -11 -9 -20
-25 -23 -43 -19 -26 19 83 41 117 43 134 8 76 -42 -70 -36 -43 13 57 44 90 58
155 16 76 -12 -22 -21 -35 -22 -29 0 6 25 59 56 118 31 59 54 109 51 112 -2 3
-19 -14 -36 -38 -55 -75 -33 -29 29 59 58 84 69 110 33 82 -12 -9 -10 -5 4 11
24 29 93 144 93 157 -1 4 -14 -8 -30 -27 -40 -46 -38 -29 3 29 43 60 110 181
100 181 -4 0 -25 -17 -47 -37 l-40 -38 29 35 c15 19 36 41 46 47 9 7 32 32 51
55 26 34 29 41 13 35 -20 -7 -20 -7 -1 8 11 8 24 15 29 15 5 0 7 6 4 13 -2 6
7 24 20 39 22 23 29 25 55 16 26 -9 28 -12 14 -27z m3758 14 c34 -7 35 -8 19
-31 -8 -13 -20 -24 -27 -23 -8 0 -7 2 1 5 14 6 -15 44 -34 44 -6 0 -15 5 -19
12 -5 7 -2 9 9 5 8 -3 31 -9 51 -12z m-4750 -34 c-4 -17 -9 -30 -11 -27 -3 2
-2 19 2 36 9 41 17 33 9 -9z m4695 18 c17 -6 31 -15 31 -20 0 -5 -15 -2 -32 7
-53 27 -53 32 1 13z m257 -76 c-8 -8 -87 18 -81 27 3 4 23 1 45 -7 22 -9 38
-18 36 -20z m-3170 11 c134 -31 258 -109 338 -212 25 -33 46 -64 46 -68 0 -5
-35 28 -77 72 -79 82 -144 128 -198 139 l-30 6 32 -18 c18 -10 31 -21 30 -24
-3 -11 35 -49 48 -49 7 0 29 -20 49 -44 l36 -45 -25 -37 c-14 -20 -25 -41 -25
-47 0 -5 -9 1 -20 14 -15 19 -21 21 -29 10 -7 -10 -11 -9 -22 5 -8 11 -23 26
-33 34 -18 13 -19 13 -11 0 4 -8 15 -23 23 -33 28 -32 7 -23 -33 16 -25 24
-33 35 -20 31 17 -6 18 -5 7 7 -11 12 -15 11 -26 -4 -12 -16 -16 -16 -56 -2
-42 15 -107 57 -122 79 -4 6 -5 20 -2 31 4 17 2 16 -15 -5 -21 -25 -26 -20
-22 22 2 16 -1 16 -39 3 -23 -8 -65 -17 -93 -19 l-52 -4 40 18 c22 10 51 19
65 20 l25 2 -25 7 c-23 7 -21 9 20 20 62 17 113 34 125 42 6 3 24 10 40 14 30
8 29 8 -20 21 -35 8 -42 12 -23 13 15 1 57 -6 94 -15z m989 -35 c17 -120 -33
-307 -104 -389 -17 -19 -15 -12 8 30 38 70 71 173 71 219 0 35 -2 33 -46 -46
-25 -46 -47 -83 -50 -83 -3 0 -2 6 2 13 4 6 -9 -4 -29 -22 -21 -19 -37 -29
-37 -22 0 7 -5 9 -12 5 -7 -4 1 8 18 27 44 47 143 197 150 226 11 41 -2 35
-39 -19 -41 -57 -49 -59 -16 -3 22 38 20 56 -5 36 -12 -10 -15 -8 -18 11 -2
18 5 28 37 45 22 12 45 22 52 22 6 1 14 -21 18 -50z m-2788 9 c-3 -7 -5 -2 -5
12 0 14 2 19 5 13 2 -7 2 -19 0 -25z m1618 -6 c-6 -5 -25 -14 -42 -20 -25 -8
-32 -8 -30 1 3 18 13 22 49 25 20 2 29 -1 23 -6z m3445 -18 c0 -2 -7 -4 -15
-4 -8 0 -15 4 -15 10 0 5 7 7 15 4 8 -4 15 -8 15 -10z m-3530 -20 c0 -2 -11
-4 -25 -4 -14 0 -25 4 -25 9 0 4 11 6 25 3 14 -2 25 -6 25 -8z m3403 9 c-7 -2
-19 -2 -25 0 -7 3 -2 5 12 5 14 0 19 -2 13 -5z m44 -9 c-3 -3 -12 -4 -19 -1
-8 3 -5 6 6 6 11 1 17 -2 13 -5z m-4059 -24 c-7 -10 -14 -17 -17 -15 -4 4 18
35 25 35 2 0 -1 -9 -8 -20z m595 -7 c-7 -2 -19 -2 -25 0 -7 3 -2 5 12 5 14 0
19 -2 13 -5z m644 -193 c84 -51 166 -221 188 -390 7 -52 -8 -37 -20 20 -11 51
-82 169 -129 214 -23 21 -35 35 -27 31 9 -5 12 -3 9 6 -3 8 -10 13 -16 12 -5
-1 -18 8 -28 20 l-19 22 25 -20 25 -20 -19 22 c-10 13 -22 20 -26 18 -4 -3
-19 5 -34 16 -25 19 -34 48 -19 62 13 13 58 7 90 -13z m-505 -16 c21 -4 35
-10 32 -15 -3 -5 11 -9 31 -9 61 0 169 -64 258 -151 42 -42 77 -82 77 -90 0
-7 -17 7 -37 32 -50 58 -80 85 -134 117 l-44 26 37 -46 c26 -31 34 -48 25 -51
-8 -4 -7 -6 3 -6 17 -1 66 -59 79 -93 7 -18 4 -30 -15 -51 -16 -19 -24 -23
-24 -13 0 8 -10 25 -22 36 -21 19 -23 20 -30 3 -6 -15 -7 -15 -7 -2 -1 9 -8
22 -16 29 -12 10 -13 6 -9 -27 l5 -38 -31 38 c-18 20 -37 37 -42 37 -6 0 -4
-7 3 -17 13 -15 12 -15 -11 -3 -14 7 -29 20 -34 28 -6 11 -10 12 -16 2 -6 -10
-15 -6 -35 15 -16 15 -25 20 -22 11 4 -9 2 -16 -3 -16 -6 0 -10 4 -10 10 0 5
-7 6 -17 3 -11 -4 -14 -3 -9 5 4 7 1 12 -9 12 -8 0 -24 14 -34 31 -15 24 -20
27 -25 14 -3 -9 -2 -13 4 -10 6 3 7 -1 4 -10 -11 -28 -29 2 -29 49 0 35 -3 42
-15 36 -22 -11 -104 -29 -109 -24 -2 2 11 10 30 18 19 9 30 15 24 16 -5 0 -3
5 5 11 12 8 9 9 -10 4 -60 -16 -62 -14 -11 10 38 18 70 25 113 25 37 0 57 4
53 10 -3 6 -15 10 -26 10 -12 0 -17 4 -13 11 3 6 15 8 27 5 11 -3 16 -1 11 4
-5 4 -18 10 -29 13 l-20 5 20 1 c11 0 37 -2 57 -5z m-1755 -43 c-27 -9 -46
-19 -43 -22 3 -2 -31 -24 -76 -48 -65 -36 -78 -40 -69 -23 25 46 147 110 211
110 17 0 10 -5 -23 -17z m1610 3 c-3 -3 -12 -4 -19 -1 -8 3 -5 6 6 6 11 1 17
-2 13 -5z m-50 -10 c-3 -3 -12 -4 -19 -1 -8 3 -5 6 6 6 11 1 17 -2 13 -5z
m-1677 -120 l-25 -15 27 5 c14 3 34 8 45 12 10 3 -14 -10 -53 -29 -43 -21
-111 -69 -177 -126 -59 -50 -107 -94 -107 -96 0 -3 21 9 47 25 43 27 112 54
120 47 1 -2 -16 -14 -40 -27 -64 -35 -214 -140 -261 -183 l-41 -37 68 30 c95
41 106 37 22 -8 -101 -54 -143 -83 -205 -142 -32 -30 -42 -44 -25 -33 47 30
137 75 141 70 2 -2 -21 -21 -52 -42 -90 -63 -121 -90 -170 -149 -26 -31 -50
-53 -55 -51 -17 11 -127 -169 -169 -277 -16 -40 -29 -66 -29 -57 -1 25 46 157
74 206 30 55 31 62 6 39 -11 -10 -44 -68 -75 -129 -66 -133 -95 -246 -105
-402 l-7 -110 -8 98 c-11 122 -2 198 34 309 76 239 214 413 638 809 210 196
252 231 305 253 72 29 119 35 77 10z m2883 -36 c-20 -68 -55 -138 -82 -162
-16 -14 -9 5 24 69 25 49 45 96 45 105 0 13 18 40 26 40 2 0 -4 -24 -13 -52z
m4143 -55 c10 -16 18 -31 17 -34 -4 -13 67 -71 127 -104 74 -39 74 -44 0 -15
-27 11 -50 16 -50 11 0 -28 158 -147 248 -186 23 -10 40 -20 38 -22 -4 -4 -70
11 -102 24 -8 3 -14 1 -14 -4 0 -16 116 -101 211 -155 49 -28 89 -52 89 -54 0
-2 -30 7 -67 21 -37 14 -71 24 -76 22 -14 -4 144 -140 212 -182 69 -43 75 -58
11 -25 -23 12 -44 19 -46 17 -9 -9 152 -162 249 -237 52 -41 94 -76 92 -78 -2
-2 -38 13 -81 32 -42 20 -79 34 -81 32 -2 -2 11 -16 28 -30 18 -15 75 -73 128
-129 70 -75 83 -91 47 -63 -27 22 -47 36 -45 30 16 -37 90 -125 179 -212 102
-100 103 -102 48 -67 -31 19 -60 35 -63 35 -3 0 19 -31 49 -69 31 -38 67 -91
82 -118 15 -26 37 -62 50 -80 25 -33 34 -98 12 -91 -6 2 -16 13 -22 23 -39 69
-125 181 -169 220 -29 26 -43 42 -31 36 11 -5 26 -17 34 -25 23 -28 32 -17 11
13 -12 16 -21 33 -21 38 0 15 -81 87 -155 138 -38 26 -74 52 -80 58 -18 17 39
-15 88 -50 27 -19 51 -32 53 -30 11 11 -102 129 -173 182 -122 90 -114 96 11
8 26 -19 46 -29 44 -21 -5 16 -164 130 -228 163 -73 39 -39 28 52 -15 87 -43
117 -39 62 8 -16 13 -23 21 -16 18 20 -12 14 -1 -20 30 -17 16 -27 23 -23 15
9 -16 -36 8 -76 41 -21 17 -19 17 14 -2 53 -31 46 -11 -8 23 -51 33 -60 45
-15 22 48 -25 26 4 -43 57 -34 26 -90 62 -125 79 -35 17 -61 33 -58 36 3 3 21
-5 41 -17 20 -12 38 -20 41 -17 7 6 -96 67 -113 67 -6 0 -14 4 -18 9 -6 10 19
4 93 -23 46 -17 56 -10 18 14 -91 58 -136 92 -131 100 3 5 0 12 -6 16 -8 4 -9
3 -5 -4 11 -18 -5 -14 -49 13 -43 27 -43 32 2 13 15 -6 40 -12 55 -12 36 -1
23 13 -63 65 -38 23 -67 44 -65 47 3 2 17 -3 32 -12 14 -10 27 -16 29 -14 2 2
-41 32 -95 68 -97 62 -125 89 -58 54 32 -16 32 -16 18 1 -14 17 -14 18 8 6 13
-7 26 -11 28 -8 5 5 -57 47 -115 76 -52 27 -49 38 4 16 47 -20 57 -12 19 17
-16 13 -40 34 -55 48 -14 14 -18 19 -9 13 39 -30 31 -9 -10 29 -25 23 -37 35
-27 28 23 -17 23 0 -4 69 -13 34 -18 64 -14 80 7 25 7 25 20 -11 7 -21 21 -50
31 -65z m-159 -87 c-1 -43 -3 -51 -12 -39 -8 11 -9 26 -1 54 5 22 11 39 12 39
1 0 2 -24 1 -54z m-4569 19 c-3 -3 -9 2 -12 12 -6 14 -5 15 5 6 7 -7 10 -15 7
-18z m-575 8 c-13 -2 -33 -2 -45 0 -13 2 -3 4 22 4 25 0 35 -2 23 -4z m209
-60 c79 -41 177 -131 203 -185 15 -32 15 -32 -2 -8 -37 54 -112 117 -183 154
-41 22 -76 43 -78 48 -7 17 -69 7 -105 -17 -43 -30 -45 -38 -13 -53 20 -9 23
-8 22 6 0 9 -5 20 -10 23 -5 4 5 14 23 23 31 16 34 16 84 -7 60 -28 97 -60 97
-85 0 -12 3 -14 8 -4 6 9 14 6 32 -13 18 -19 21 -28 12 -37 -8 -8 -16 -8 -29
3 -15 12 -15 10 1 -9 11 -12 16 -25 13 -28 -3 -4 0 -19 9 -35 8 -16 12 -29 8
-29 -4 0 -1 -7 6 -15 9 -10 9 -15 1 -15 -6 0 -11 -5 -11 -11 0 -8 5 -7 15 1 9
7 14 19 11 27 -6 14 1 15 24 5 12 -6 7 -15 -22 -44 l-37 -38 4 40 c3 34 1 40
-16 40 -10 0 -19 5 -19 10 0 6 -5 10 -11 10 -6 0 -8 -8 -5 -17 6 -17 5 -17 -8
0 -18 23 -30 22 -23 -3 6 -24 3 -25 -20 -5 -71 62 -112 80 -63 27 32 -34 23
-36 -17 -3 -37 31 -57 34 -33 6 17 -20 8 -19 -34 6 -19 11 -42 32 -51 46 -14
20 -19 23 -26 12 -9 -14 -4 39 8 86 4 16 3 18 -7 8 -7 -7 -16 -29 -20 -50 l-7
-38 -11 41 c-11 39 -13 41 -52 39 -22 -1 -40 2 -40 7 0 4 -12 3 -26 -3 -24 -8
-25 -8 -14 6 19 23 106 64 151 71 21 4 37 10 34 14 -4 6 -49 1 -120 -16 l-30
-7 19 22 c11 11 31 21 45 22 14 0 35 4 46 9 11 4 59 6 107 5 79 -3 95 -8 160
-42z m315 15 c17 -18 49 -64 73 -103 44 -74 45 -60 2 33 -35 75 -36 81 -17 57
57 -69 106 -215 104 -311 l-1 -59 -12 58 c-23 105 -159 336 -192 323 -16 -6
-17 -4 -8 18 9 23 16 20 51 -16z m33 6 c0 -2 -9 0 -20 6 -11 6 -20 13 -20 16
0 2 9 0 20 -6 11 -6 20 -13 20 -16z m504 -83 c-9 -23 -18 -40 -21 -38 -2 3 4
23 13 46 9 23 18 40 21 38 2 -3 -4 -23 -13 -46z m4075 -101 c-1 -28 -27 55
-28 85 0 24 3 19 14 -20 8 -27 14 -57 14 -65z m-5309 66 c0 -2 -8 -10 -17 -17
-16 -13 -17 -12 -4 4 13 16 21 21 21 13z m530 -146 c0 -5 -2 -10 -4 -10 -3 0
-8 5 -11 10 -3 6 -1 10 4 10 6 0 11 -4 11 -10z m39 -79 c31 -43 94 -178 89
-192 -2 -7 -19 17 -37 53 -19 36 -48 81 -65 100 -17 19 -26 27 -20 19 6 -9 17
-27 24 -41 9 -19 3 -15 -24 14 -29 31 -34 42 -25 57 14 27 34 24 58 -10z m32
8 c46 -46 99 -202 99 -291 0 -76 -17 -56 -24 30 -10 109 -48 220 -88 255 -18
15 -27 27 -20 27 7 0 21 -9 33 -21z m-2351 -283 c0 -2 -8 -10 -17 -17 -16 -13
-17 -12 -4 4 13 16 21 21 21 13z m-49 -64 c-5 -10 -18 -25 -27 -33 -16 -12
-17 -12 -9 1 10 18 37 50 42 50 2 0 -1 -8 -6 -18z m7854 -58 l30 -26 -50 27
c-62 34 -79 49 -40 35 17 -6 44 -22 60 -36z m-7931 -64 c-10 -16 -19 -28 -21
-26 -6 6 20 56 29 56 5 0 1 -13 -8 -30z m826 -533 c0 -2 -10 -12 -22 -23 l-23
-19 19 23 c18 21 26 27 26 19z m7761 -274 c13 -16 12 -17 -3 -4 -10 7 -18 15
-18 17 0 8 8 3 21 -13z m-7901 -17 c0 -2 -8 -10 -17 -17 -16 -13 -17 -12 -4 4
13 16 21 21 21 13z m7941 -23 c13 -16 12 -17 -3 -4 -10 7 -18 15 -18 17 0 8 8
3 21 -13z m-7991 -147 c0 -2 -8 -10 -17 -17 -16 -13 -17 -12 -4 4 13 16 21 21
21 13z m50 -96 c7 10 8 1 5 -30 -6 -56 -33 -153 -34 -122 -1 24 -19 25 -38 2
-15 -19 -17 -44 -2 -34 6 3 3 -5 -6 -20 -10 -15 -20 -24 -23 -21 -3 3 -1 10 5
16 6 6 9 17 7 23 -3 7 9 46 26 87 34 85 33 79 21 79 -5 0 -17 -17 -27 -37 -9
-21 -19 -33 -21 -26 -4 12 20 66 40 91 9 11 13 10 24 -5 12 -15 15 -16 23 -3z
m24 -99 c-4 -17 -9 -30 -11 -27 -3 2 -2 19 2 36 9 41 17 33 9 -9z m-248 -38
c9 24 24 21 24 -4 0 -16 5 -20 18 -17 17 5 17 2 8 -18 -6 -13 -21 -28 -33 -33
-13 -6 -23 -17 -23 -26 0 -21 -9 -19 -31 10 -13 16 -26 22 -37 18 -9 -3 -2 8
16 24 23 21 31 36 26 49 -5 19 -5 19 10 0 14 -17 16 -17 22 -3z m-62 -149 l25
6 -24 -24 c-17 -17 -25 -36 -25 -61 l0 -35 68 0 c91 -1 306 -12 311 -16 2 -2
-39 -5 -92 -5 -53 -1 -100 -2 -104 -3 -5 -1 -80 -5 -168 -9 -88 -4 -200 -10
-250 -13 -64 -4 -86 -2 -75 5 23 16 -33 14 -221 -9 -227 -29 -329 -53 -329
-81 0 -41 333 -94 730 -118 134 -8 134 -8 39 -10 -170 -2 -598 40 -743 73 -97
23 -98 22 -94 -95 2 -55 0 -99 -4 -99 -5 0 -9 47 -10 105 -1 58 -2 115 -2 128
-2 51 150 90 486 122 81 8 212 17 293 21 80 4 148 11 151 16 3 5 -2 8 -12 6
-15 -2 -19 3 -18 27 3 45 23 92 34 76 5 -9 17 -11 34 -7z m624 -121 c-16 -2
-40 -2 -55 0 -16 2 -3 4 27 4 30 0 43 -2 28 -4z m400 -20 c-10 -2 -28 -2 -40
0 -13 2 -5 4 17 4 22 1 32 -1 23 -4z m175 -18 c127 -19 196 -39 230 -66 27
-20 27 -21 27 -152 0 -207 -12 -479 -21 -470 -5 5 -12 130 -16 278 -7 233 -10
269 -23 266 -8 -2 -35 -5 -60 -7 -25 -2 -105 -10 -178 -19 -72 -9 -138 -15
-145 -12 -6 2 11 8 38 11 222 32 358 68 353 94 -5 24 -90 50 -230 71 -73 10
-121 19 -105 20 15 1 73 -6 130 -14z m152 -65 c3 -6 -1 -7 -9 -4 -18 7 -21 14
-7 14 6 0 13 -4 16 -10z m-1390 -60 c-28 -12 -105 -12 -105 0 0 6 27 10 63 9
44 0 56 -3 42 -9z m98 -37 c35 -21 -96 -31 -193 -14 l-45 8 45 2 c25 1 52 6
60 11 14 10 114 4 133 -7z m887 -42 l55 -7 -40 -7 c-131 -23 -631 -37 -659
-19 -6 4 -69 10 -141 13 -106 4 -79 6 140 8 149 2 329 7 400 10 174 10 182 10
245 2z m-1923 -157 c-3 -4 -45 -10 -92 -15 -87 -9 -149 -32 -193 -72 -19 -17
-22 -18 -16 -4 8 22 3 21 -43 -4 l-38 -21 30 26 c40 35 121 74 175 85 53 10
186 14 177 5z m128 -4 c-3 -5 -11 -10 -16 -10 -6 0 -7 5 -4 10 3 6 11 10 16
10 6 0 7 -4 4 -10z m-175 -80 c0 -5 -8 -10 -17 -10 -32 0 -117 -46 -168 -91
l-50 -44 39 48 c54 66 196 136 196 97z m260 -20 c0 -5 -2 -10 -4 -10 -3 0 -8
5 -11 10 -3 6 -1 10 4 10 6 0 11 -4 11 -10z m1395 -14 c-11 -16 -28 -25 -57
-29 -22 -3 -44 -11 -49 -18 -10 -17 -69 -241 -69 -265 0 -10 -5 -26 -10 -34
-8 -12 -10 -10 -10 10 0 20 -2 22 -10 10 -5 -8 -10 -34 -10 -57 0 -47 -6 -52
-26 -25 -18 24 -18 78 1 86 8 3 15 10 15 16 0 6 -4 9 -8 6 -9 -5 -9 32 1 54 3
8 11 44 17 80 6 36 13 72 16 81 4 14 -3 15 -48 12 -39 -3 -49 -2 -38 6 13 9
11 11 -6 11 -18 0 -34 17 -34 35 0 6 37 17 75 22 22 2 67 8 100 13 33 4 84 8
113 9 l52 1 -15 -24z m-394 -20 c4 -4 12 -41 19 -82 9 -51 17 -74 27 -74 8 0
11 -5 8 -10 -4 -7 2 -9 19 -4 36 9 33 -5 -4 -18 -22 -7 -30 -16 -29 -32 5 -55
-2 -127 -11 -121 -12 7 -12 1 -1 -47 5 -22 5 -38 0 -38 -5 0 -9 5 -9 11 0 8
-5 8 -15 -1 -13 -11 -15 -8 -15 19 0 17 -4 31 -10 31 -5 0 -10 5 -10 11 0 5 5
7 12 3 8 -5 9 -2 4 12 -16 38 -24 85 -18 106 4 17 2 20 -11 15 -8 -3 -32 -9
-51 -13 -20 -3 -39 -11 -43 -17 -4 -7 5 -8 27 -3 43 8 29 -6 -18 -19 -30 -8
-41 -19 -60 -58 -12 -26 -27 -47 -33 -47 -8 0 -7 5 1 15 21 26 4 28 -20 3 -13
-13 -19 -17 -15 -9 4 7 3 16 -4 20 -13 9 52 161 74 174 8 4 12 15 9 25 -5 13
-4 14 4 3 12 -17 27 3 18 25 -3 9 0 25 6 37 7 12 17 38 23 57 9 28 17 37 50
46 39 11 57 7 76 -20z m-257 -2 c12 -5 13 -10 5 -25 -7 -14 -21 -19 -52 -19
-70 0 -116 -11 -120 -29 -4 -14 -5 -14 -6 1 -1 23 12 30 73 35 92 9 87 22 -9
25 l-90 2 80 6 c44 3 85 7 92 8 6 1 18 -1 27 -4z m-247 -116 c-3 -8 -6 -5 -6
6 -1 11 2 17 5 13 3 -3 4 -12 1 -19z m-10 -40 c-3 -8 -6 -5 -6 6 -1 11 2 17 5
13 3 -3 4 -12 1 -19z m-667 -190 c0 -105 -2 -189 -4 -187 -2 2 -6 91 -10 197
-4 132 -3 192 4 187 6 -4 10 -77 10 -197z m885 192 c-3 -5 -15 -10 -26 -10
-10 0 -19 5 -19 10 0 6 12 10 26 10 14 0 23 -4 19 -10z m-58 -6 c-3 -3 -12 -4
-19 -1 -8 3 -5 6 6 6 11 1 17 -2 13 -5z m53 -19 c-46 -18 -64 -17 -25 0 17 8
37 14 45 14 8 0 -1 -7 -20 -14z m-213 -77 c-3 -7 -5 -2 -5 12 0 14 2 19 5 13
2 -7 2 -19 0 -25z m30 -10 c-3 -7 -5 -2 -5 12 0 14 2 19 5 13 2 -7 2 -19 0
-25z m203 -43 c-7 -8 -22 -15 -34 -14 -19 1 -19 2 4 10 16 5 -7 7 -65 4 -61
-2 -77 -1 -50 4 22 5 66 9 99 10 51 1 57 -1 46 -14z m-75 -15 c-3 -5 -12 -10
-18 -10 -7 0 -6 4 3 10 19 12 23 12 15 0z m23 -25 c-2 -3 -27 -7 -54 -10 l-49
-5 50 13 c47 13 64 13 53 2z m542 -28 c0 -18 -2 -19 -10 -7 -13 20 -13 43 0
35 6 -3 10 -16 10 -28z m428 -75 c19 -25 15 -47 -19 -98 -30 -44 -108 -104
-135 -104 -7 0 -15 -19 -19 -42 -6 -41 -24 -98 -30 -98 -22 0 -35 17 -35 46 0
39 19 135 30 149 15 20 18 55 5 65 -25 21 -25 50 1 66 13 9 24 22 24 30 0 20
160 7 178 -14z m9349 22 c-3 -3 -12 -4 -19 -1 -8 3 -5 6 6 6 11 1 17 -2 13 -5z
m-637 -14 c10 -7 1 -8 -30 -4 -56 8 -64 14 -19 14 19 0 41 -5 49 -10z m-8947
-7 c4 -3 0 -15 -10 -25 -11 -13 -30 -18 -64 -18 -48 0 -74 -15 -42 -23 14 -4
14 -5 -3 -6 -22 -1 -34 -19 -34 -47 0 -12 11 -14 59 -8 38 4 61 3 65 -5 9 -14
-115 -72 -130 -60 -7 6 -18 -6 -33 -33 -12 -22 -20 -42 -19 -44 2 -1 32 4 68
11 73 16 120 19 120 8 -2 -28 -44 -54 -112 -69 -40 -9 -83 -18 -95 -21 -25 -6
-39 25 -24 54 5 10 15 57 21 106 7 48 16 90 21 93 5 3 9 21 9 39 0 38 7 41 85
48 77 7 112 7 118 0z m9370 0 c-13 -2 -33 -2 -45 0 -13 2 -3 4 22 4 25 0 35
-2 23 -4z m-775 -10 c-10 -2 -26 -2 -35 0 -10 3 -2 5 17 5 19 0 27 -2 18 -5z
m500 2 c-8 -9 -88 -11 -100 -3 -8 4 13 8 46 8 33 0 57 -2 54 -5z m55 -2 c-7
-2 -21 -2 -30 0 -10 3 -4 5 12 5 17 0 24 -2 18 -5z m-9397 -15 c12 -19 -28
-38 -83 -38 -32 0 -53 -4 -53 -11 0 -6 9 -9 20 -6 11 3 20 1 20 -4 0 -5 -11
-9 -25 -9 -18 0 -28 -7 -36 -26 -5 -15 -8 -29 -6 -31 3 -2 30 0 61 5 43 7 59
6 67 -4 9 -11 5 -16 -17 -25 -35 -15 -29 -13 -85 -22 -31 -5 -49 -14 -53 -25
-3 -9 -11 -25 -18 -34 -18 -25 -7 -30 48 -19 83 16 134 20 134 9 0 -5 -9 -12
-21 -15 -11 -3 -18 -11 -15 -18 3 -8 -21 -18 -72 -30 -42 -10 -83 -21 -91 -25
-8 -4 -22 -3 -32 3 -14 8 -15 16 -7 36 5 14 14 29 21 33 18 11 5 17 -26 11
-15 -3 -26 -10 -24 -16 2 -6 -32 -23 -77 -37 -45 -15 -92 -32 -104 -39 -13 -7
-27 -10 -30 -6 -12 11 -3 115 12 138 8 12 18 54 21 92 4 39 12 80 16 93 8 21
10 22 25 7 15 -14 15 -25 -2 -126 -14 -88 -15 -112 -5 -119 12 -7 70 4 174 31
20 5 37 14 37 20 0 6 -5 7 -11 3 -12 -7 -11 -2 17 133 l16 72 41 4 c94 8 156
7 163 -5z m8574 -14 c47 -8 64 -13 57 -20 -3 -3 -34 1 -69 10 -34 8 -76 17
-93 20 -16 2 -7 3 20 0 28 -2 66 -6 85 -10z m430 6 c-36 -12 -78 -12 -85 0 -4
6 16 10 52 9 44 -1 52 -3 33 -9z m-9631 -16 c-7 -8 -31 -25 -53 -36 -49 -25
-44 -17 15 22 52 34 56 35 38 14z m111 -9 c0 -18 -16 -35 -34 -35 -11 0 -40
-9 -63 -20 -24 -10 -43 -17 -43 -14 0 6 86 45 109 49 9 2 18 4 20 4 2 1 -2 8
-9 16 -11 13 -10 14 4 9 9 -3 16 -8 16 -9z m8713 8 c-7 -2 -19 -2 -25 0 -7 3
-2 5 12 5 14 0 19 -2 13 -5z m-8764 -8 c-9 -8 -79 -35 -79 -30 0 7 53 34 69
35 8 0 12 -2 10 -5z m9011 -4 c-15 -9 -140 -16 -170 -10 -14 2 87 14 155 17
21 1 26 -1 15 -7z m858 -8 c-10 -2 -26 -2 -35 0 -10 3 -2 5 17 5 19 0 27 -2
18 -5z m-1183 -13 c4 -6 -17 -10 -57 -10 -35 0 -74 -3 -88 -6 -18 -5 -22 -4
-15 4 6 6 37 13 70 15 33 2 65 4 72 5 6 1 15 -2 18 -8z m1271 -8 c-16 -2 -32
0 -37 5 -5 5 7 7 29 4 34 -5 35 -6 8 -9z m202 11 c-10 -2 -26 -2 -35 0 -10 3
-2 5 17 5 19 0 27 -2 18 -5z m852 -3 c30 -5 10 -6 -60 -3 -58 3 -107 7 -109 9
-8 7 124 2 169 -6z m-1483 -6 c-3 -3 -12 -4 -19 -1 -8 3 -5 6 6 6 11 1 17 -2
13 -5z m1560 -10 c-3 -3 -12 -4 -19 -1 -8 3 -5 6 6 6 11 1 17 -2 13 -5z
m-2728 -8 c-2 -2 -47 -6 -99 -9 -57 -4 -85 -3 -70 3 24 8 178 14 169 6z m1321
-6 c-20 -13 -70 -13 -70 0 0 6 19 10 43 10 31 0 38 -3 27 -10z m1483 3 c-7 -2
-19 -2 -25 0 -7 3 -2 5 12 5 14 0 19 -2 13 -5z m-473 -13 c0 -13 -11 -13 -30
0 -12 8 -11 10 8 10 12 0 22 -4 22 -10z m103 3 c-7 -2 -19 -2 -25 0 -7 3 -2 5
12 5 14 0 19 -2 13 -5z m420 0 c-7 -2 -19 -2 -25 0 -7 3 -2 5 12 5 14 0 19 -2
13 -5z m-3200 -10 c-7 -2 -21 -2 -30 0 -10 3 -4 5 12 5 17 0 24 -2 18 -5z
m924 1 c-3 -3 -12 -4 -19 -1 -8 3 -5 6 6 6 11 1 17 -2 13 -5z m1296 -1 c-7 -2
-19 -2 -25 0 -7 3 -2 5 12 5 14 0 19 -2 13 -5z m1034 1 c-3 -3 -12 -4 -19 -1
-8 3 -5 6 6 6 11 1 17 -2 13 -5z m-3369 -11 c-16 -2 -40 -2 -55 0 -16 2 -3 4
27 4 30 0 43 -2 28 -4z m1420 0 c-10 -2 -26 -2 -35 0 -10 3 -2 5 17 5 19 0 27
-2 18 -5z m2009 1 c-3 -3 -12 -4 -19 -1 -8 3 -5 6 6 6 11 1 17 -2 13 -5z
m-3670 -10 c-3 -3 -12 -4 -19 -1 -8 3 -5 6 6 6 11 1 17 -2 13 -5z m966 -1 c-7
-2 -21 -2 -30 0 -10 3 -4 5 12 5 17 0 24 -2 18 -5z m402 -7 c6 -2 -11 -5 -37
-7 -26 -2 -54 1 -63 7 -11 8 -2 10 38 7 28 -3 57 -6 62 -7z m935 4 c-8 -5 -31
-9 -50 -8 l-35 1 40 7 c59 11 61 11 45 0z m413 3 c-13 -2 -35 -2 -50 0 -16 2
-5 4 22 4 28 0 40 -2 28 -4z m-2774 -7 c-9 -9 -149 -13 -149 -5 0 5 35 9 77 9
42 0 74 -2 72 -4z m3289 -3 c-10 -2 -26 -2 -35 0 -10 3 -2 5 17 5 19 0 27 -2
18 -5z m-2139 -13 c-46 -14 -149 -21 -149 -11 0 6 30 12 68 14 37 2 76 4 87 4
13 1 12 -1 -6 -7z m1295 0 c-11 -4 -36 -5 -55 0 -31 7 -29 8 21 8 39 1 49 -2
34 -8z m-344 -12 c32 0 33 -1 13 -10 -17 -8 -40 -7 -90 5 l-68 17 55 -6 c30
-3 71 -6 90 -6z m-2557 -5 c-7 -2 -19 -2 -25 0 -7 3 -2 5 12 5 14 0 19 -2 13
-5z m2670 0 c-13 -2 -35 -2 -50 0 -16 2 -5 4 22 4 28 0 40 -2 28 -4z m-6551
-19 c129 -33 388 -169 438 -229 22 -27 -19 -6 -74 37 -27 21 -51 36 -55 33 -3
-4 5 -15 19 -25 43 -34 13 -22 -51 20 -34 22 -68 40 -75 40 -7 0 -15 4 -18 9
-4 5 3 7 14 4 11 -3 20 -2 20 1 0 11 -69 37 -154 57 -52 12 -65 17 -37 15 71
-7 32 16 -62 35 -45 10 -69 18 -53 18 15 1 55 -6 88 -15z m5151 9 c-7 -2 -21
-2 -30 0 -10 3 -4 5 12 5 17 0 24 -2 18 -5z m-1595 -10 c-10 -2 -28 -2 -40 0
-13 2 -5 4 17 4 22 1 32 -1 23 -4z m1515 0 c-18 -2 -48 -2 -65 0 -18 2 -4 4
32 4 36 0 50 -2 33 -4z m2025 0 c-16 -2 -40 -2 -55 0 -16 2 -3 4 27 4 30 0 43
-2 28 -4z m-2268 -13 c0 -6 -28 -10 -62 -10 -35 0 -81 -3 -103 -7 -22 -3 -37
-3 -33 1 6 7 109 22 171 25 15 0 27 -3 27 -9z m1287 -1 c-24 -6 -45 -5 -55 1
-12 7 -2 9 38 9 55 -1 55 -1 17 -10z m-2894 -6 c-13 -2 -33 -2 -45 0 -13 2 -3
4 22 4 25 0 35 -2 23 -4z m2415 0 c-10 -2 -26 -2 -35 0 -10 3 -2 5 17 5 19 0
27 -2 18 -5z m1530 0 c-10 -2 -28 -2 -40 0 -13 2 -5 4 17 4 22 1 32 -1 23 -4z
m-1280 -10 c-10 -2 -26 -2 -35 0 -10 3 -2 5 17 5 19 0 27 -2 18 -5z m-158 -13
c0 -5 -4 -10 -9 -10 -6 0 -13 5 -16 10 -3 6 1 10 9 10 9 0 16 -4 16 -10z
m1199 6 c-2 -2 -38 -6 -79 -10 -51 -4 -70 -3 -60 4 13 9 149 15 139 6z m-4146
-13 c-13 -2 -35 -2 -50 0 -16 2 -5 4 22 4 28 0 40 -2 28 -4z m1596 3 c-7 -8
-118 -10 -126 -3 -3 4 24 7 62 7 38 0 66 -2 64 -4z m3528 -2 c-3 -3 -12 -4
-19 -1 -8 3 -5 6 6 6 11 1 17 -2 13 -5z m-8642 -14 c-3 -5 -12 -10 -18 -10 -7
0 -6 4 3 10 19 12 23 12 15 0z m6175 0 c-14 -4 -43 -8 -65 -8 l-40 1 35 7 c19
4 49 8 65 8 29 0 29 0 5 -8z m83 3 c-7 -2 -19 -2 -25 0 -7 3 -2 5 12 5 14 0
19 -2 13 -5z m-606 -9 c-3 -3 -12 -4 -19 -1 -8 3 -5 6 6 6 11 1 17 -2 13 -5z
m1612 2 c-2 -2 -21 -6 -42 -10 -27 -5 -37 -4 -32 3 3 6 22 11 42 11 20 0 34
-2 32 -4z m-9800 -32 c-30 -32 -59 -49 -59 -34 0 5 6 10 13 10 8 0 24 11 37
25 13 14 26 25 28 25 3 0 -5 -12 -19 -26z m3184 -23 c7 -8 -7 -2 -30 14 -24
15 -43 30 -43 32 0 7 61 -31 73 -46z m2424 43 c-3 -3 -12 -4 -19 -1 -8 3 -5 6
6 6 11 1 17 -2 13 -5z m1596 -1 c-7 -2 -19 -2 -25 0 -7 3 -2 5 12 5 14 0 19
-2 13 -5z m1223 0 c-10 -10 -149 -22 -161 -14 -5 3 22 9 60 12 39 3 79 6 89 7
11 1 16 -1 12 -5z m857 0 c-7 -2 -19 -2 -25 0 -7 3 -2 5 12 5 14 0 19 -2 13
-5z m1514 1 c-3 -3 -12 -4 -19 -1 -8 3 -5 6 6 6 11 1 17 -2 13 -5z m-1280 -10
c-3 -3 -12 -4 -19 -1 -8 3 -5 6 6 6 11 1 17 -2 13 -5z m820 0 c-3 -3 -12 -4
-19 -1 -8 3 -5 6 6 6 11 1 17 -2 13 -5z m-5142 -15 c-18 -5 -33 -5 -39 1 -7 7
4 10 30 9 39 -1 39 -1 9 -10z m4180 1 c3 -5 -1 -10 -9 -10 -9 0 -16 5 -16 10
0 6 4 10 9 10 6 0 13 -4 16 -10z m-2572 -7 c-7 -2 -21 -2 -30 0 -10 3 -4 5 12
5 17 0 24 -2 18 -5z m1296 2 c-8 -8 -183 -22 -194 -16 -5 3 24 9 65 12 119 9
134 9 129 4z m2348 -1 c-3 -3 -12 -4 -19 -1 -8 3 -5 6 6 6 11 1 17 -2 13 -5z
m-177 -9 c-25 -5 -205 -29 -210 -28 -2 1 -6 7 -9 14 -2 7 2 10 11 7 7 -3 41
-2 73 2 57 7 166 11 135 5z m-3767 -12 c-7 -2 -19 -2 -25 0 -7 3 -2 5 12 5 14
0 19 -2 13 -5z m2570 0 c-13 -2 -33 -2 -45 0 -13 2 -3 4 22 4 25 0 35 -2 23
-4z m-2660 -10 c-7 -2 -21 -2 -30 0 -10 3 -4 5 12 5 17 0 24 -2 18 -5z m1294
1 c-3 -3 -12 -4 -19 -1 -8 3 -5 6 6 6 11 1 17 -2 13 -5z m-89 -11 c-10 -2 -28
-2 -40 0 -13 2 -5 4 17 4 22 1 32 -1 23 -4z m1209 1 c-3 -3 -12 -4 -19 -1 -8
3 -5 6 6 6 11 1 17 -2 13 -5z m766 -1 c-7 -2 -19 -2 -25 0 -7 3 -2 5 12 5 14
0 19 -2 13 -5z m277 -3 c0 -5 -12 -10 -27 -11 -16 0 -60 -3 -100 -7 -39 -4
-80 -4 -90 -1 -11 5 1 8 32 9 28 1 73 5 100 10 74 11 85 11 85 0z m-1157 -7
c-13 -2 -35 -2 -50 0 -16 2 -5 4 22 4 28 0 40 -2 28 -4z m-1410 -10 c-7 -2
-19 -2 -25 0 -7 3 -2 5 12 5 14 0 19 -2 13 -5z m-6193 -9 c0 -26 -26 -43 -85
-55 -71 -14 -87 -28 -98 -88 -7 -32 -6 -33 21 -28 15 3 45 8 67 11 33 5 36 5
16 -4 -33 -15 -20 -23 15 -10 25 10 27 9 14 -3 -8 -8 -39 -22 -68 -30 -45 -13
-54 -13 -59 -1 -3 8 -9 11 -14 8 -5 -3 -9 11 -9 31 0 21 -4 34 -10 30 -6 -3
-7 1 -4 9 3 9 1 16 -6 16 -6 0 -8 5 -4 12 4 6 3 8 -3 5 -6 -4 -16 -35 -23 -69
-7 -35 -16 -67 -21 -72 -4 -5 -1 20 7 55 9 35 17 84 19 107 2 24 6 46 9 49 5
6 165 30 209 32 15 1 27 -2 27 -5z m2471 -213 c38 -57 69 -109 68 -115 0 -6
-6 -3 -12 8 -85 133 -154 229 -191 266 -25 25 -45 50 -45 55 0 21 114 -115
180 -214z m3609 215 c0 -8 -71 -12 -76 -4 -3 4 13 8 35 8 23 0 41 -2 41 -4z
m1192 -8 c-11 -10 -95 -11 -121 -1 -18 7 -5 9 52 9 42 -1 73 -4 69 -8z m1127
-3 c-6 -5 -238 -27 -704 -65 -203 -16 -401 -33 -440 -37 -77 -8 -75 -8 -125 6
l-35 11 44 -4 c24 -3 100 2 170 9 111 13 274 25 846 65 83 6 155 13 160 15 14
5 89 6 84 0z m-6332 -37 c-3 -8 -6 -5 -6 6 -1 11 2 17 5 13 3 -3 4 -12 1 -19z
m3666 15 c-7 -2 -21 -2 -30 0 -10 3 -4 5 12 5 17 0 24 -2 18 -5z m1264 1 c-3
-3 -12 -4 -19 -1 -8 3 -5 6 6 6 11 1 17 -2 13 -5z m-134 -11 c-13 -2 -33 -2
-45 0 -13 2 -3 4 22 4 25 0 35 -2 23 -4z m-7246 -27 c17 -18 17 -18 -2 -9 -11
6 -33 13 -49 17 -27 7 -28 6 -15 -10 13 -16 12 -16 -10 -5 -13 7 -34 11 -47 8
-13 -2 -21 0 -18 5 4 6 -2 8 -12 6 -11 -2 -20 -13 -22 -27 -3 -17 -6 -20 -12
-11 -5 7 -3 21 3 31 16 26 158 22 184 -5z m5723 4 c0 -5 -10 -10 -22 -10 -19
0 -20 2 -8 10 19 13 30 13 30 0z m-3072 -214 c81 -113 95 -126 135 -126 42 0
52 -11 113 -125 61 -115 48 -104 -20 17 -52 91 -54 93 -94 99 -23 3 -42 4 -42
2 0 -2 7 -18 16 -34 8 -17 14 -33 12 -35 -2 -2 -13 13 -23 34 -44 83 -143 219
-218 300 l-81 87 72 -70 c40 -38 98 -106 130 -149z m3002 204 c0 -5 -2 -10 -4
-10 -3 0 -8 5 -11 10 -3 6 -1 10 4 10 6 0 11 -4 11 -10z m1245 5 c-26 -9 -105
-12 -105 -4 0 5 26 9 58 8 31 0 53 -2 47 -4z m-3890 -50 c28 -24 46 -44 40
-44 -5 0 -32 20 -58 44 -27 25 -45 45 -40 45 5 0 31 -20 58 -45z m144 -73 c88
-97 176 -213 207 -274 40 -78 10 -63 -39 20 -59 102 -128 187 -137 171 -5 -8
-10 -5 -15 10 -10 32 -55 82 -67 74 -6 -3 -8 -1 -5 5 4 5 -12 28 -36 49 -24
21 -42 44 -40 51 7 19 52 -17 132 -106z m-3095 64 c9 -19 16 -45 15 -58 -1
-15 -4 -9 -10 16 -5 22 -16 47 -24 56 -16 18 -20 34 -6 26 5 -3 16 -21 25 -40z
m6553 38 c-3 -3 -12 -4 -19 -1 -8 3 -5 6 6 6 11 1 17 -2 13 -5z m856 -1 c-7
-2 -19 -2 -25 0 -7 3 -2 5 12 5 14 0 19 -2 13 -5z m3280 0 c-7 -2 -19 -2 -25
0 -7 3 -2 5 12 5 14 0 19 -2 13 -5z m-4303 -13 c-8 -5 -28 -9 -45 -9 l-30 1
30 8 c17 4 37 8 45 9 13 1 13 0 0 -9z m4259 5 c-3 -2 -104 -14 -225 -25 -120
-11 -262 -24 -314 -30 -52 -5 -252 -24 -445 -40 -382 -33 -1027 -94 -1170
-110 -49 -5 -216 -21 -370 -35 -275 -25 -592 -55 -790 -75 -55 -6 -246 -24
-425 -41 -800 -74 -835 -77 -835 -79 0 -1 -27 -3 -60 -6 -66 -5 -422 -40 -499
-49 -37 -5 -47 -3 -44 7 3 9 47 17 149 25 79 7 245 23 369 37 124 14 308 33
410 41 102 9 223 20 270 25 47 6 137 14 200 20 63 5 237 21 385 35 149 14 374
34 500 45 127 11 275 25 330 30 55 6 174 17 265 25 91 8 210 19 265 25 153 16
510 49 700 65 94 7 321 28 505 44 809 75 839 77 829 66z m-10776 -12 c-7 -2
-21 -2 -30 0 -10 3 -4 5 12 5 17 0 24 -2 18 -5z m72 -3 c3 -6 -1 -7 -9 -4 -18
7 -21 14 -7 14 6 0 13 -4 16 -10z m5104 6 c-7 -8 -108 -10 -115 -3 -4 4 21 7
56 7 35 0 61 -2 59 -4z m-5066 -79 c-7 -12 -9 -7 -16 33 l-6 35 14 -30 c7 -16
11 -34 8 -38z m7345 58 c-2 -3 -64 -12 -138 -20 -92 -11 -136 -13 -144 -5 -7
7 8 10 50 11 32 1 84 4 114 9 68 9 125 12 118 5z m-4598 -45 c0 -10 -78 -12
-84 -1 -8 12 30 25 46 15 8 -5 9 -2 4 11 -7 18 -6 18 14 0 11 -10 20 -21 20
-25z m3150 30 c-30 -5 -73 -8 -95 -8 l-40 1 40 7 c22 4 65 7 95 7 l55 0 -55
-7z m-6073 -32 c-3 -8 -6 -5 -6 6 -1 11 2 17 5 13 3 -3 4 -12 1 -19z m7052 2
c-15 -4 -81 -14 -148 -21 -94 -10 -124 -10 -133 -1 -9 9 7 12 73 13 46 0 107
4 134 9 28 4 61 8 75 8 l25 0 -26 -8z m-3907 -65 c9 -16 6 -16 -17 5 -15 14
-32 34 -37 45 -9 16 -6 16 17 -5 15 -14 32 -34 37 -45z m2263 45 c3 -5 1 -10
-4 -10 -6 0 -11 5 -11 10 0 6 2 10 4 10 3 0 8 -4 11 -10z m98 3 c-7 -2 -19 -2
-25 0 -7 3 -2 5 12 5 14 0 19 -2 13 -5z m-5334 -75 c-21 -41 -35 -58 -51 -58
-17 0 -7 20 10 21 9 0 12 3 5 5 -6 3 -27 -2 -45 -11 l-33 -17 30 26 c17 14 37
23 47 20 18 -5 47 38 49 73 1 16 2 16 6 1 2 -9 -6 -36 -18 -60z m6047 45 c-7
-7 -65 7 -71 17 -3 4 13 3 35 -2 23 -6 39 -13 36 -15z m-2951 -3 c10 -11 16
-20 13 -20 -3 0 -13 9 -23 20 -10 11 -16 20 -13 20 3 0 13 -9 23 -20z m3330
10 c3 -6 -4 -10 -17 -10 -13 0 -84 -7 -158 -14 -74 -8 -139 -11 -145 -6 -5 4
-18 9 -29 11 -10 2 37 5 105 6 68 1 144 6 169 11 61 13 68 13 75 2z m-1025
-40 c13 -9 13 -10 0 -9 -8 1 -26 5 -40 9 l-25 8 25 1 c14 0 32 -4 40 -9z
m-5303 -22 c-3 -8 -6 -5 -6 6 -1 11 2 17 5 13 3 -3 4 -12 1 -19z m5513 18 c0
-2 -7 -6 -15 -10 -8 -3 -15 -1 -15 4 0 6 7 10 15 10 8 0 15 -2 15 -4z m283 -3
c-7 -2 -21 -2 -30 0 -10 3 -4 5 12 5 17 0 24 -2 18 -5z m-63 -9 c-50 -12 -296
-32 -303 -25 -5 5 38 12 100 16 59 3 113 8 118 10 6 2 30 3 55 3 25 0 38 -2
30 -4z m-5845 -64 c-16 -16 -33 -30 -39 -30 -9 0 53 59 63 60 3 0 -8 -13 -24
-30z m115 15 c0 -8 -4 -15 -10 -15 -5 0 -7 7 -4 15 4 8 8 15 10 15 2 0 4 -7 4
-15z m19 -30 c-15 -8 -30 -22 -33 -32 -6 -13 -9 -14 -15 -4 -7 10 -9 9 -14 -3
-9 -24 8 -28 32 -7 13 11 30 16 46 13 14 -2 25 -6 25 -7 0 -10 -103 -36 -111
-28 -15 15 10 75 30 69 9 -3 23 -1 31 4 8 5 20 10 25 9 6 0 -2 -6 -16 -14z
m2771 -30 c-10 -12 -8 -22 12 -53 30 -45 50 -82 45 -82 -2 0 -21 27 -41 60
-31 49 -35 64 -26 75 7 8 15 15 17 15 3 0 0 -7 -7 -15z m4225 -15 c-29 -12
-108 -12 -100 0 3 6 32 10 63 9 41 0 51 -3 37 -9z m-7254 -23 c-8 -8 -14 -7
-23 2 -11 10 -9 11 6 5 15 -6 17 -4 11 6 -6 9 -4 11 4 5 9 -5 10 -10 2 -18z
m6779 -17 c-36 -12 -70 -12 -70 0 0 6 21 10 48 9 38 -1 42 -2 22 -9z m-6154
-36 c-3 -9 -6 -20 -6 -25 0 -5 -18 -12 -40 -15 -22 -4 -42 -10 -45 -13 -2 -4
-16 -66 -31 -139 -15 -72 -31 -129 -36 -126 -7 4 -13 -53 -9 -79 2 -14 -22 -2
-32 15 -6 8 -7 24 -2 34 4 11 9 37 11 59 1 22 8 68 13 102 17 96 19 123 9 123
-5 0 -11 -7 -15 -16 -4 -11 -13 -13 -37 -8 -41 8 -47 15 -32 37 9 11 51 25
127 41 141 30 132 29 125 10z m5703 -8 c-2 -2 -39 -7 -83 -11 -56 -5 -76 -4
-72 4 4 6 39 11 83 11 42 0 74 -2 72 -4z m-6025 -32 c10 -4 17 -26 22 -66 4
-32 13 -65 20 -72 7 -8 10 -17 6 -21 -4 -5 1 -5 11 -2 21 8 22 -2 2 -17 -11
-8 -16 -30 -16 -74 -1 -34 -5 -62 -10 -62 -5 0 -7 -11 -3 -25 3 -14 3 -33 -1
-42 -10 -27 -35 39 -42 112 -3 33 -7 61 -8 63 -1 1 -22 -7 -46 -18 -34 -16
-38 -19 -16 -17 37 6 34 -10 -4 -18 -25 -6 -35 -16 -51 -56 -12 -27 -25 -49
-30 -49 -5 0 -6 5 -3 10 3 6 1 10 -4 10 -6 0 -11 -6 -12 -12 0 -7 -4 -3 -10
10 -7 18 -2 41 22 98 17 41 37 81 45 89 8 7 14 25 14 39 0 14 4 27 9 30 5 3
12 22 15 41 9 44 48 65 90 49z m5481 -14 c-39 -10 -158 -12 -151 -2 2 4 44 8
93 9 59 1 78 -1 58 -7z m-5652 -16 c3 -4 2 -14 -3 -24 -6 -12 -28 -19 -70 -24
-33 -4 -60 -11 -60 -16 0 -4 10 -6 22 -2 14 3 19 2 14 -6 -4 -7 -16 -12 -27
-12 -20 0 -43 -39 -30 -52 3 -4 28 -2 54 3 38 7 52 6 63 -5 11 -12 8 -16 -26
-30 -22 -9 -49 -16 -60 -16 -10 0 -22 -5 -25 -11 -4 -6 -13 -8 -20 -6 -12 5
-50 -61 -41 -71 3 -3 42 3 87 13 44 9 83 15 86 12 2 -3 -5 -19 -17 -35 -18
-25 -37 -34 -107 -51 -46 -12 -88 -19 -92 -17 -11 7 -7 37 8 64 7 13 10 34 7
45 -2 12 2 54 10 92 8 39 16 80 17 92 1 12 7 26 12 32 18 17 185 38 198 25z
m3358 -25 c-9 -22 -10 -22 -10 -3 -1 11 2 24 6 27 12 12 14 0 4 -24z m-3696 2
c38 -2 75 -7 82 -13 20 -16 15 -52 -9 -81 -13 -15 -34 -40 -47 -57 -13 -17
-45 -42 -72 -56 -47 -23 -49 -26 -49 -67 -1 -71 -42 -115 -54 -57 -3 16 -2 39
2 49 7 19 8 18 19 -5 6 -13 7 -24 2 -24 -5 0 -9 5 -9 12 0 6 -3 9 -6 5 -3 -3
-3 -15 1 -27 5 -17 10 -19 21 -9 16 13 20 104 4 94 -6 -3 -7 1 -4 9 3 9 1 16
-5 16 -6 0 -11 7 -11 15 0 8 5 15 10 15 16 0 11 69 -7 97 -17 25 -16 26 10 49
15 13 27 31 27 40 0 12 4 14 13 7 6 -6 43 -11 82 -12z m10808 12 c-7 -2 -19
-2 -25 0 -7 3 -2 5 12 5 14 0 19 -2 13 -5z m-95 -10 c-10 -2 -26 -2 -35 0 -10
3 -2 5 17 5 19 0 27 -2 18 -5z m-10874 -12 c4 -5 3 -16 0 -25 -5 -12 -20 -16
-66 -16 -64 0 -73 14 -12 18 62 5 52 12 -17 14 l-64 1 65 7 c36 4 70 7 77 8 6
1 14 -2 17 -7z m10784 2 c-10 -2 -28 -2 -40 0 -13 2 -5 4 17 4 22 1 32 -1 23
-4z m-95 -10 c-13 -2 -33 -2 -45 0 -13 2 -3 4 22 4 25 0 35 -2 23 -4z m-85
-10 c-10 -2 -28 -2 -40 0 -13 2 -5 4 17 4 22 1 32 -1 23 -4z m-228 -24 c-216
-25 -673 -75 -825 -90 -66 -6 -124 -15 -128 -19 -4 -4 33 -17 82 -29 83 -20
199 -58 141 -46 -14 3 -63 12 -110 20 -105 19 -193 46 -182 57 7 7 150 24 657
78 110 11 254 27 320 34 66 8 140 14 165 14 25 0 -29 -9 -120 -19z m-7225 -69
c3 -5 -3 -10 -14 -10 -12 0 -21 5 -21 10 0 6 6 10 14 10 8 0 18 -4 21 -10z
m83 3 c-10 -2 -28 -2 -40 0 -13 2 -5 4 17 4 22 1 32 -1 23 -4z m-3251 -39 c-3
-3 -12 -4 -19 -1 -8 3 -5 6 6 6 11 1 17 -2 13 -5z m9720 -90 c-3 -3 -12 -4
-19 -1 -8 3 -5 6 6 6 11 1 17 -2 13 -5z m53 -14 c18 -12 2 -12 -25 0 -13 6
-15 9 -5 9 8 0 22 -4 30 -9z m-8110 -224 c0 -12 -5 -7 -19 24 -11 24 -11 24 3
6 9 -11 16 -24 16 -30z m6445 15 c3 -5 1 -12 -4 -15 -4 -3 -11 -19 -14 -35 -4
-20 -16 -34 -38 -45 -37 -19 -49 -20 -49 -6 0 6 8 10 19 10 10 0 24 7 31 15
17 20 -2 20 -42 -1 -17 -9 -38 -14 -48 -11 -12 3 -20 -2 -25 -17 -4 -13 -8
-16 -12 -8 -2 6 -18 12 -33 12 -35 0 -66 -36 -49 -56 8 -10 3 -18 -23 -34 -18
-11 -42 -20 -54 -20 -16 0 -24 -10 -33 -41 -7 -23 -15 -38 -18 -35 -3 3 2 25
11 49 13 34 24 46 52 56 26 9 41 24 56 56 19 40 24 43 50 38 18 -4 35 0 46 9
23 21 144 87 159 88 6 0 14 -4 18 -9z m92 -53 c18 -21 18 -21 -14 -4 -37 19
-51 36 -24 29 11 -3 28 -14 38 -25z m-6457 2 c18 -12 2 -12 -25 0 -13 6 -15 9
-5 9 8 0 22 -4 30 -9z m9100 -49 c0 -15 -16 -22 -34 -15 -25 9 -19 24 9 24 14
0 25 -4 25 -9z m-9076 -43 c-3 -4 -15 -3 -27 4 -21 11 -21 11 -2 18 20 7 38
-7 29 -22z m5306 6 c0 -3 -4 -2 -10 1 -5 3 -10 -1 -10 -11 0 -13 -3 -14 -15
-4 -12 10 -20 9 -40 -4 -14 -9 -25 -12 -25 -7 0 5 14 18 32 29 23 15 37 18 50
11 10 -5 18 -12 18 -15z m795 -3 c-3 -5 1 -16 9 -24 8 -8 12 -17 9 -21 -12
-11 -21 -6 -26 16 -6 21 -1 38 9 38 3 0 3 -4 -1 -9z m-6230 -21 c-3 -5 -12
-10 -18 -10 -7 0 -6 4 3 10 19 12 23 12 15 0z m5589 4 c31 -12 16 -19 -42 -20
-31 -1 -48 0 -37 3 11 3 24 9 30 14 11 10 27 11 49 3z m-5644 -26 c0 -6 -6 -5
-15 2 -8 7 -15 14 -15 16 0 2 7 1 15 -2 8 -4 15 -11 15 -16z m146 1 c19 -22
19 -22 -3 -8 -13 8 -23 17 -23 21 0 12 6 9 26 -13z m6623 12 c7 -5 9 -11 4
-14 -4 -3 -17 1 -28 9 -21 16 0 20 24 5z m-1154 -41 c-3 -5 -17 -10 -31 -10
-18 0 -24 -5 -22 -17 3 -21 -32 -30 -58 -15 -15 8 -12 12 17 25 62 28 106 36
94 17z m-323 -20 c-22 -21 -42 -26 -42 -12 0 9 37 30 54 31 6 1 0 -8 -12 -19z
m-4751 -20 c13 -10 19 -19 13 -20 -6 0 -17 6 -24 14 -6 8 -21 17 -33 19 l-22
4 21 2 c12 0 32 -8 45 -19z m5454 10 c-3 -5 -11 -10 -16 -10 -6 0 -7 5 -4 10
3 6 11 10 16 10 6 0 7 -4 4 -10z m-515 -10 c0 -5 -22 -16 -49 -24 -27 -8 -59
-20 -71 -26 -17 -9 -21 -9 -18 0 2 6 33 22 68 34 36 13 66 24 68 25 1 0 2 -3
2 -9z m-240 -10 c0 -5 -5 -10 -11 -10 -5 0 -7 5 -4 10 3 6 8 10 11 10 2 0 4
-4 4 -10z m510 -10 c0 -5 -4 -10 -9 -10 -6 0 -13 5 -16 10 -3 6 1 10 9 10 9 0
16 -4 16 -10z m1217 -6 c-3 -3 -12 -4 -19 -1 -8 3 -5 6 6 6 11 1 17 -2 13 -5z
m84 -21 c13 -17 13 -17 -6 -3 -11 8 -22 16 -24 17 -2 2 0 3 6 3 6 0 17 -8 24
-17z m-2841 -13 c0 -5 -7 -7 -15 -4 -8 4 -15 8 -15 10 0 2 7 4 15 4 8 0 15 -4
15 -10z m-3550 -10 c0 -5 -4 -10 -10 -10 -5 0 -10 5 -10 10 0 6 5 10 10 10 6
0 10 -4 10 -10z m2808 -1 c-12 -7 -24 -7 -35 0 -15 9 -12 10 17 10 29 0 32 -1
18 -10z m-3085 -34 c20 -14 37 -33 36 -43 0 -14 -2 -13 -9 4 -7 17 -46 40
-100 58 -8 2 -4 5 10 5 14 1 42 -10 63 -24z m5625 14 c-10 -5 -18 -17 -18 -24
0 -17 -16 -20 -25 -5 -3 6 -18 8 -33 5 -24 -5 -23 -4 8 13 37 21 102 31 68 11z
m-5668 -39 c0 -5 -4 -10 -10 -10 -5 0 -10 5 -10 10 0 6 5 10 10 10 6 0 10 -4
10 -10z m5559 7 c-19 -15 -79 -47 -79 -43 0 8 62 46 74 46 5 0 7 -1 5 -3z
m-5513 -42 c10 -33 10 -34 -5 -21 -9 8 -17 24 -18 36 -3 32 11 23 23 -15z
m211 3 c-3 -8 -6 -5 -6 6 -1 11 2 17 5 13 3 -3 4 -12 1 -19z m144 -29 c19 -16
20 -18 4 -10 -34 17 -51 31 -39 31 7 0 22 -9 35 -21z m4269 -16 c3 -3 -16 -3
-41 0 -41 6 -50 3 -79 -23 -50 -45 -50 -36 -1 14 l43 44 37 -15 c20 -8 38 -18
41 -20z m992 15 c-7 -7 -12 -8 -12 -2 0 14 12 26 19 19 2 -3 -1 -11 -7 -17z
m-892 -13 c0 -10 -10 -15 -27 -15 -26 0 -26 1 -7 15 25 19 34 19 34 0z m-4583
-29 l35 -25 -36 3 c-20 2 -40 7 -44 11 -4 4 4 4 18 1 l25 -7 -24 20 c-32 28
-18 26 26 -3z m-107 4 c13 -8 13 -10 -2 -10 -9 0 -20 5 -23 10 -8 13 5 13 25
0z m45 -30 c3 -5 2 -10 -4 -10 -5 0 -13 5 -16 10 -3 6 -2 10 4 10 5 0 13 -4
16 -10z m5640 0 c3 -5 1 -10 -4 -10 -6 0 -11 5 -11 10 0 6 2 10 4 10 3 0 8 -4
11 -10z m-5595 -26 c0 -2 -7 -4 -15 -4 -8 0 -15 4 -15 10 0 5 7 7 15 4 8 -4
15 -8 15 -10z m5441 -24 c-13 -11 -28 -20 -35 -20 -6 1 0 10 13 20 13 11 28
20 35 20 6 -1 0 -10 -13 -20z m-53 -7 c-2 -9 -8 -18 -15 -20 -7 -3 -9 3 -6 16
6 25 26 28 21 4z m287 -3 c3 -5 2 -10 -4 -10 -5 0 -13 5 -16 10 -3 6 -2 10 4
10 5 0 13 -4 16 -10z m-355 -14 c0 -11 -19 -15 -25 -6 -3 5 1 10 9 10 9 0 16
-2 16 -4z m-5710 -16 c0 -5 -2 -10 -4 -10 -3 0 -8 5 -11 10 -3 6 -1 10 4 10 6
0 11 -4 11 -10z m4445 -60 c-3 -5 -11 -10 -16 -10 -6 0 -7 5 -4 10 3 6 11 10
16 10 6 0 7 -4 4 -10z m-360 -10 c3 -6 -1 -7 -9 -4 -18 7 -21 14 -7 14 6 0 13
-4 16 -10z"/>
<path d="M2860 10950 c-8 -5 -10 -10 -5 -10 6 0 17 5 25 10 8 5 11 10 5 10 -5
0 -17 -5 -25 -10z"/>
<path d="M3175 10620 c3 -5 8 -10 11 -10 2 0 4 5 4 10 0 6 -5 10 -11 10 -5 0
-7 -4 -4 -10z"/>
<path d="M3080 10615 c0 -2 10 -10 23 -16 20 -11 21 -11 8 4 -13 16 -31 23
-31 12z"/>
<path d="M3130 10585 c0 -4 11 -18 25 -31 14 -13 25 -20 25 -15 0 4 -11 18
-25 31 -14 13 -25 20 -25 15z"/>
<path d="M3184 10575 c8 -8 21 -15 28 -15 8 1 6 6 -6 15 -26 20 -42 19 -22 0z"/>
<path d="M4410 10861 c0 -5 5 -13 10 -16 6 -3 10 -2 10 4 0 5 -4 13 -10 16 -5
3 -10 2 -10 -4z"/>
<path d="M1934 10528 c-47 -43 -84 -103 -84 -135 0 -10 14 7 31 37 16 30 49
74 72 98 53 54 40 55 -19 0z"/>
<path d="M2450 10540 c-13 -9 -13 -10 0 -9 8 0 24 4 35 9 l20 9 -20 0 c-11 0
-27 -4 -35 -9z"/>
<path d="M2574 10542 c4 -6 22 -14 41 -18 20 -3 38 -10 41 -15 8 -13 48 -11
63 4 10 10 11 9 6 -4 -5 -14 3 -18 47 -24 29 -4 62 -12 73 -17 19 -10 19 -9
-1 12 -12 12 -48 31 -80 42 -69 23 -201 37 -190 20z"/>
<path d="M2327 10394 c-3 -3 -3 -12 -1 -19 3 -7 -4 -16 -16 -20 -11 -4 -41
-24 -66 -46 -50 -43 -51 -52 -1 -15 29 22 67 38 92 41 6 0 27 9 47 20 34 17
36 20 20 31 -18 14 -64 19 -75 8z m53 -18 c0 -3 -4 -8 -10 -11 -5 -3 -10 -1
-10 4 0 6 5 11 10 11 6 0 10 -2 10 -4z"/>
<path d="M2521 10376 c-19 -7 -31 -15 -25 -18 5 -3 27 3 49 13 45 20 28 24
-24 5z"/>
<path d="M2375 10301 c-3 -5 -2 -12 3 -15 5 -3 9 1 9 9 0 17 -3 19 -12 6z"/>
<path d="M1425 10040 c-3 -6 1 -7 9 -4 18 7 21 14 7 14 -6 0 -13 -4 -16 -10z"/>
<path d="M1250 9935 c-24 -24 -42 -47 -39 -50 3 -2 27 18 54 45 27 28 45 50
39 50 -5 0 -30 -20 -54 -45z"/>
<path d="M2037 9760 c-10 -27 -29 -62 -42 -77 -18 -20 -23 -23 -18 -9 4 14 3
17 -6 12 -7 -5 -10 -15 -6 -24 3 -9 -4 -25 -17 -39 -23 -24 -23 -24 30 3 67
34 96 68 81 95 -5 11 -7 35 -3 54 9 49 2 43 -19 -15z"/>
<path d="M1955 9731 c-31 -27 -67 -52 -78 -54 -12 -3 -3 -4 20 -3 23 2 49 8
57 15 7 6 19 10 26 9 11 -3 45 71 36 79 -2 2 -29 -18 -61 -46z m-20 -41 c-3
-5 -12 -10 -18 -10 -7 0 -6 4 3 10 19 12 23 12 15 0z"/>
<path d="M1480 9710 c0 -5 7 -7 15 -4 8 4 15 8 15 10 0 2 -7 4 -15 4 -8 0 -15
-4 -15 -10z"/>
<path d="M1663 9676 c15 -7 24 -15 21 -19 -4 -4 -2 -7 4 -7 26 0 20 19 -10 29
-41 14 -50 13 -15 -3z"/>
<path d="M1850 9649 c0 -5 7 -9 16 -9 8 0 12 -4 9 -10 -3 -5 -1 -10 4 -10 19
0 12 28 -9 33 -11 3 -20 1 -20 -4z"/>
<path d="M1403 9598 c-17 -18 -36 -44 -43 -57 -24 -46 -10 -162 25 -206 15
-20 15 -20 9 0 -4 13 4 7 22 -15 16 -19 40 -46 54 -59 14 -13 19 -21 13 -17
-7 4 -13 5 -13 2 0 -10 61 -37 74 -34 11 2 11 12 -1 53 -8 28 -16 69 -17 92
-1 29 -12 56 -34 87 -18 24 -32 49 -32 55 0 15 -13 14 -29 -1 -11 -11 -12 -2
-8 48 2 34 7 66 11 72 13 21 1 13 -31 -20z"/>
<path d="M1970 9410 c-9 -6 -10 -10 -3 -10 6 0 15 5 18 10 8 12 4 12 -15 0z"/>
<path d="M1950 9220 c0 -5 5 -10 11 -10 5 0 7 5 4 10 -3 6 -8 10 -11 10 -2 0
-4 -4 -4 -10z"/>
<path d="M2104 8925 c-11 -5 -19 -16 -16 -23 2 -6 -1 -12 -7 -12 -6 0 -11 -8
-11 -17 0 -14 2 -15 9 -4 6 10 10 10 16 1 4 -6 -1 -20 -11 -31 -13 -15 -14
-18 -3 -14 20 8 51 68 47 92 -2 16 -7 17 -24 8z"/>
<path d="M1995 8750 c-3 -5 -1 -10 4 -10 6 0 11 5 11 10 0 6 -2 10 -4 10 -3 0
-8 -4 -11 -10z"/>
<path d="M1637 8474 c-9 -9 1 -24 17 -24 7 0 20 6 30 13 16 12 16 13 -3 13
-12 0 -21 -5 -21 -11 0 -5 -4 -4 -8 3 -5 7 -11 9 -15 6z"/>
<path d="M1340 8051 c0 -6 4 -13 10 -16 6 -3 7 1 4 9 -7 18 -14 21 -14 7z"/>
<path d="M1468 8018 c5 -5 16 -8 23 -6 8 3 3 7 -10 11 -17 4 -21 3 -13 -5z"/>
<path d="M1765 7608 c10 -31 34 -68 45 -68 12 0 0 73 -14 82 -23 16 -38 9 -31
-14z"/>
<path d="M3260 10143 c0 -12 71 -63 88 -63 7 0 12 5 12 11 0 5 -4 8 -9 4 -6
-3 -19 5 -30 17 -12 12 -21 18 -21 13 0 -4 -9 0 -20 10 -11 10 -20 14 -20 8z"/>
<path d="M4020 9971 c0 -5 -3 -17 -7 -27 -9 -23 13 -10 27 17 9 15 7 19 -5 19
-8 0 -15 -4 -15 -9z"/>
<path d="M5207 9328 c-8 -13 -29 -38 -46 -55 -16 -18 -25 -33 -18 -33 13 0 87
87 87 101 0 14 -7 10 -23 -13z"/>
<path d="M3977 7748 c-26 -35 -51 -98 -39 -98 4 0 21 29 38 65 18 36 30 65 28
65 -1 0 -14 -15 -27 -32z"/>
<path d="M3816 7305 c-9 -26 -7 -32 5 -12 6 10 9 21 6 23 -2 3 -7 -2 -11 -11z"/>
<path d="M9862 4880 c0 -14 2 -19 5 -12 2 6 2 18 0 25 -3 6 -5 1 -5 -13z"/>
<path d="M11565 8451 c38 -39 71 -71 74 -71 2 0 -20 25 -48 55 -29 30 -49 60
-46 65 3 6 2 10 -4 10 -5 0 -18 3 -28 6 -10 4 13 -25 52 -65z"/>
<path d="M11695 8320 c27 -27 51 -50 54 -50 3 0 -17 23 -44 50 -27 28 -51 50
-54 50 -3 0 17 -22 44 -50z"/>
<path d="M11805 8210 c10 -11 20 -20 23 -20 3 0 -3 9 -13 20 -10 11 -20 20
-23 20 -3 0 3 -9 13 -20z"/>
<path d="M12050 7955 c13 -14 26 -25 28 -25 3 0 -5 11 -18 25 -13 14 -26 25
-28 25 -3 0 5 -11 18 -25z"/>
<path d="M12220 7781 c22 -27 60 -63 83 -81 26 -21 12 -2 -38 49 -44 44 -81
81 -83 81 -2 0 15 -22 38 -49z"/>
<path d="M7800 8150 c6 -11 15 -20 20 -20 6 0 5 9 -2 20 -7 11 -16 20 -21 20
-4 0 -3 -9 3 -20z"/>
<path d="M7891 8009 c-1 -14 6 -34 14 -45 19 -25 19 -1 0 41 -13 30 -13 30
-14 4z"/>
<path d="M7029 7863 c-13 -17 -13 -17 6 -3 11 8 22 16 24 17 2 2 0 3 -6 3 -6
0 -17 -8 -24 -17z"/>
<path d="M7110 7810 c-13 -8 -12 -10 3 -10 9 0 17 5 17 10 0 12 -1 12 -20 0z"/>
<path d="M7181 7786 l-24 -31 28 27 c16 15 27 29 24 31 -2 3 -15 -10 -28 -27z"/>
<path d="M6633 7620 c-35 -22 -63 -42 -63 -45 0 -8 33 8 83 41 28 18 54 31 58
28 4 -2 10 0 14 6 14 23 -34 7 -92 -30z"/>
<path d="M7160 7640 c-6 -11 -8 -20 -6 -20 3 0 10 9 16 20 6 11 8 20 6 20 -3
0 -10 -9 -16 -20z"/>
<path d="M6690 7620 c-9 -6 -10 -10 -3 -10 6 0 15 5 18 10 8 12 4 12 -15 0z"/>
<path d="M6647 7593 c-4 -3 -7 -9 -7 -13 0 -9 120 -44 126 -37 12 12 -9 27
-47 33 -22 4 -42 11 -45 15 -6 11 -18 12 -27 2z"/>
<path d="M6853 7540 c-48 -19 -16 -48 31 -30 23 9 26 13 16 25 -14 17 -16 17
-47 5z"/>
<path d="M6966 7465 c-9 -14 -12 -25 -7 -25 12 0 35 39 28 46 -2 3 -12 -7 -21
-21z"/>
<path d="M6568 7453 c6 -2 18 -2 25 0 6 3 1 5 -13 5 -14 0 -19 -2 -12 -5z"/>
<path d="M6470 7400 c-9 -6 -10 -10 -3 -10 6 0 15 5 18 10 8 12 4 12 -15 0z"/>
<path d="M7097 7373 c-20 -14 -37 -34 -37 -43 0 -16 -49 -70 -64 -70 -4 0 -14
-7 -22 -15 -9 -8 -12 -15 -7 -15 11 0 46 24 85 60 17 16 34 27 38 25 4 -2 7 3
7 11 0 9 -6 13 -16 9 -9 -3 2 10 24 29 48 42 44 46 -8 9z"/>
<path d="M6787 7358 c-22 -16 -25 -23 -15 -29 11 -7 10 -11 -2 -18 -8 -6 -11
-13 -7 -17 3 -4 23 6 43 21 29 23 38 25 46 14 6 -10 7 -6 2 11 -6 23 -21 40
-34 40 -3 -1 -18 -10 -33 -22z"/>
<path d="M7000 7331 c-5 -11 -10 -29 -10 -41 l0 -21 30 23 c33 24 38 43 14 52
-22 8 -22 8 -34 -13z"/>
<path d="M6971 7304 c0 -11 3 -14 6 -6 3 7 2 16 -1 19 -3 4 -6 -2 -5 -13z"/>
<path d="M6665 7270 c-3 -5 -2 -10 4 -10 5 0 13 5 16 10 3 6 2 10 -4 10 -5 0
-13 -4 -16 -10z"/>
<path d="M6845 7270 c-3 -6 1 -7 9 -4 18 7 21 14 7 14 -6 0 -13 -4 -16 -10z"/>
<path d="M7025 7229 c-4 -6 -5 -12 -2 -15 2 -3 7 2 10 11 7 17 1 20 -8 4z"/>
<path d="M8230 7370 c0 -5 5 -10 10 -10 6 0 10 5 10 10 0 6 -4 10 -10 10 -5 0
-10 -4 -10 -10z"/>
<path d="M7037 6534 c-16 -9 -27 -18 -24 -20 3 -3 20 4 38 15 39 24 28 28 -14
5z"/>
<path d="M3410 6543 c-53 -20 -88 -68 -40 -56 16 4 19 2 14 -13 -6 -17 -5 -17
9 1 11 14 12 22 4 27 -14 9 -9 14 33 32 23 10 28 15 15 15 -11 0 -27 -3 -35
-6z"/>
<path d="M3515 6360 c3 -5 8 -10 11 -10 2 0 4 5 4 10 0 6 -5 10 -11 10 -5 0
-7 -4 -4 -10z"/>
<path d="M3568 6328 c12 -12 24 -19 27 -16 8 7 -23 38 -38 38 -6 0 -2 -10 11
-22z"/>
<path d="M3768 6258 c64 -69 113 -135 137 -182 14 -28 25 -44 25 -37 0 16 -84
168 -108 196 -20 24 -63 55 -75 55 -5 0 5 -15 21 -32z"/>
<path d="M3314 6211 c-38 -17 -61 -38 -53 -45 2 -2 18 -6 34 -8 17 -3 24 -3
17 -1 -24 8 -6 28 24 27 19 -1 22 0 7 3 -13 2 -23 9 -23 14 0 15 35 10 90 -11
28 -11 54 -20 58 -20 7 1 -99 59 -108 59 -3 0 -24 -8 -46 -18z"/>
<path d="M3231 6124 c0 -11 3 -14 6 -6 3 7 2 16 -1 19 -3 4 -6 -2 -5 -13z"/>
<path d="M3280 6095 c0 -14 4 -25 9 -25 4 0 6 11 3 25 -2 14 -6 25 -8 25 -2 0
-4 -11 -4 -25z"/>
<path d="M2998 5813 c7 -3 16 -2 19 1 4 3 -2 6 -13 5 -11 0 -14 -3 -6 -6z"/>
<path d="M3131 5778 c-6 -17 -9 -33 -7 -35 5 -6 23 20 30 45 11 35 -11 26 -23
-10z"/>
<path d="M3360 5736 c0 -2 8 -10 18 -17 15 -13 16 -12 3 4 -13 16 -21 21 -21
13z"/>
<path d="M1893 3033 c9 -2 23 -2 30 0 6 3 -1 5 -18 5 -16 0 -22 -2 -12 -5z"/>
<path d="M1637 2943 c-34 -65 -34 -72 0 -69 38 4 48 25 37 77 l-10 44 -27 -52z"/>
<path d="M1590 2921 c-7 -15 -7 -21 0 -21 12 0 25 28 17 36 -3 3 -10 -4 -17
-15z"/>
<path d="M1496 2773 c-6 -14 -5 -15 5 -6 7 7 10 15 7 18 -3 3 -9 -2 -12 -12z"/>
<path d="M2248 2558 c-17 -14 -33 -68 -20 -68 4 0 13 5 20 12 6 6 14 9 18 6 3
-4 -7 -13 -23 -22 -15 -8 -23 -15 -17 -16 7 0 22 9 35 20 13 10 20 19 15 20
-6 0 3 14 19 30 l29 30 -30 0 c-17 0 -37 -6 -46 -12z"/>
<path d="M1498 2313 c7 -3 16 -2 19 1 4 3 -2 6 -13 5 -11 0 -14 -3 -6 -6z"/>
<path d="M2335 2210 c-16 -4 -24 -8 -17 -9 7 0 11 -4 8 -9 -2 -4 13 -6 34 -4
21 2 41 10 44 18 6 16 -18 17 -69 4z"/>
<path d="M2186 1615 c-4 -11 -14 -35 -22 -52 -15 -36 -3 -44 29 -20 15 10 16
19 9 52 -8 33 -11 36 -16 20z"/>
<path d="M1713 1603 c-36 -5 -47 -20 -56 -75 l-6 -38 37 19 c38 19 83 61 66
61 -6 0 -16 -6 -24 -12 -8 -7 -5 -1 8 13 22 26 28 40 15 37 -5 0 -23 -3 -40
-5z"/>
<path d="M9524 1125 c-10 -8 -14 -15 -8 -15 5 0 19 7 30 15 10 8 14 15 8 15
-5 0 -19 -7 -30 -15z"/>
</g>
</svg>
