<?xml version="1.0" encoding="UTF-8"?>
<svg xmlns="http://www.w3.org/2000/svg" version="1.2" baseProfile="tiny-ps" width="600" height="600" viewBox="0 0 600 600">
<title>Molecode</title>
<desc>Molecode brand logo</desc>
<rect width="600" height="600" fill="#0b0b0d"/>
<circle cx="300" cy="300" r="258" fill="#151519"/>
<circle cx="300" cy="300" r="238" fill="#d0922f"/>
<circle cx="300" cy="300" r="222" fill="#111114"/>
<path d="M166 352c-8-66 16-135 69-170 32-22 78-27 116-14 57 20 97 74 101 138 4 61-25 119-79 151-46 28-104 30-151 5-32-18-51-51-56-110z" fill="#1d1a18"/>
<path d="M196 293c4-63 53-112 115-111 67 1 122 57 124 126 2 50-27 93-72 114-62 30-139 5-160-59-6-17-8-43-7-70z" fill="#26211e"/>
<path d="M220 246c29-47 89-69 140-43 32 16 54 45 62 80-31-32-66-45-105-43-38 2-68 15-97 40-1-10-1-23 0-34z" fill="#3a312b"/>
<path d="M206 356c20 45 62 72 109 72 53 0 95-34 111-83-55 39-138 44-220 11z" fill="#181514"/>
<path d="M194 198c19-50 77-78 131-66 34 8 64 28 85 58-56-33-117-30-169 8-17 13-30 29-41 48-5-14-7-31-6-48z" fill="#100f10"/>
<path d="M166 259c-27 2-55-12-69-37 21 8 42 7 62-6 13-9 23-20 30-36 11 29 2 61-23 79z" fill="#191717"/>
<path d="M451 263c27 1 53-13 67-38-21 8-42 7-61-6-13-9-23-20-30-36-11 28-1 61 24 80z" fill="#191717"/>
<path d="M204 248l88-14c17-2 31 11 32 28l2 37c1 19-13 36-32 38l-71 9c-17 2-32-10-35-27l-10-35c-5-18 7-33 26-36z" fill="#030304"/>
<path d="M407 248l-88-14c-17-2-31 11-32 28l-2 37c-1 19 13 36 32 38l71 9c17 2 32-10 35-27l10-35c5-18-7-33-26-36z" fill="#030304"/>
<path d="M188 245l112-19c22-4 43 12 45 35l2 38c1 9-6 16-15 17l-8 1-2-54c-1-10-10-18-21-16l-99 16c-10 2-17 12-14 22l12 49c2 9-4 18-13 19-8 1-15-4-18-12l-15-51c-6-21 10-41 34-45z" fill="#cc8a28"/>
<path d="M413 245l-112-19c-22-4-43 12-45 35l-2 38c-1 9 6 16 15 17l8 1 2-54c1-10 10-18 21-16l99 16c10 2 17 12 14 22l-12 49c-2 9 4 18 13 19 8 1 15-4 18-12l15-51c6-21-10-41-34-45z" fill="#cc8a28"/>
<path d="M320 244c-12-8-28-8-40 0l-3 29c14-6 31-6 46 0l-3-29z" fill="#cc8a28"/>
<path d="M234 263l58-9c10-2 18 6 19 16l1 28c1 9-6 17-15 18l-52 7c-10 1-19-5-21-15l-8-28c-2-8 6-15 18-17z" fill="#111111"/>
<path d="M367 263l-58-9c-10-2-18 6-19 16l-1 28c-1 9 6 17 15 18l52 7c10 1 19-5 21-15l8-28c2-8-6-15-18-17z" fill="#111111"/>
<path d="M240 262l39-6-37 61-22 3z" fill="#3b3b3d"/>
<path d="M286 255l20 1-35 56-20 3z" fill="#595959"/>
<path d="M361 262l-39-6 37 61 22 3z" fill="#3b3b3d"/>
<path d="M315 255l-20 1 35 56 20 3z" fill="#595959"/>
<ellipse cx="300" cy="336" rx="47" ry="38" fill="#b96e50"/>
<ellipse cx="300" cy="326" rx="34" ry="24" fill="#d58a70"/>
<ellipse cx="300" cy="326" rx="22" ry="17" fill="#973a31"/>
<path d="M284 323c5-9 24-12 35-2-7-2-14 1-18 8-4-5-10-7-17-6z" fill="#f0b6a3"/>
<circle cx="289" cy="327" r="5" fill="#120b0b"/>
<circle cx="311" cy="327" r="5" fill="#120b0b"/>
<path d="M231 366c25 38 113 41 141 0" fill="none" stroke="#080707" stroke-width="14" stroke-linecap="round"/>
<path d="M246 356c20 18 43 27 56 27s38-9 57-27" fill="none" stroke="#805e4e" stroke-width="5" stroke-linecap="round"/>
<path d="M253 328c-35-23-77-34-121-32" fill="none" stroke="#d9ad62" stroke-width="5" stroke-linecap="round"/>
<path d="M255 348c-40-4-76 6-106 26" fill="none" stroke="#d9ad62" stroke-width="5" stroke-linecap="round"/>
<path d="M347 328c35-23 77-34 121-32" fill="none" stroke="#d9ad62" stroke-width="5" stroke-linecap="round"/>
<path d="M345 348c40-4 76 6 106 26" fill="none" stroke="#d9ad62" stroke-width="5" stroke-linecap="round"/>
<path d="M206 414c44 45 142 54 194 4-18 63-61 103-99 103-43 0-79-43-95-107z" fill="#121113"/>
<path d="M203 414c34 26 63 38 98 38 40 0 73-14 99-38-17 35-54 61-99 62-43 0-82-24-98-62z" fill="#24201d"/>
<path d="M149 459c23 15 51 25 81 30" fill="none" stroke="#d0922f" stroke-width="13" stroke-linecap="round"/>
<path d="M451 459c-23 15-51 25-81 30" fill="none" stroke="#d0922f" stroke-width="13" stroke-linecap="round"/>
</svg>
